<svg width="20" height="20" viewBox="0 0 20 20" fill="none" xmlns="http://www.w3.org/2000/svg">
<path d="M11.2498 8.75065V9.16732H8.74984V8.75065C8.74984 8.05898 8.1915 7.50065 7.49984 7.50065H6.6665V5.83398H7.49984C8.1915 5.83398 8.74984 5.27565 8.74984 4.58398V2.08398C8.74984 1.39232 8.1915 0.833984 7.49984 0.833984H4.1665C3.47484 0.833984 2.9165 1.39232 2.9165 2.08398V4.58398C2.9165 5.27565 3.47484 5.83398 4.1665 5.83398H4.99984V7.50065H4.1665C3.47484 7.50065 2.9165 8.05898 2.9165 8.75065V11.2507C2.9165 11.9423 3.47484 12.5007 4.1665 12.5007H4.99984V14.1673H4.1665C3.47484 14.1673 2.9165 14.7256 2.9165 15.4173V17.9173C2.9165 18.609 3.47484 19.1673 4.1665 19.1673H7.49984C8.1915 19.1673 8.74984 18.609 8.74984 17.9173V15.4173C8.74984 14.7256 8.1915 14.1673 7.49984 14.1673H6.6665V12.5007H7.49984C8.1915 12.5007 8.74984 11.9423 8.74984 11.2507V10.834H11.2498V11.2507C11.2498 11.9423 11.8082 12.5007 12.4998 12.5007H15.8332C16.5248 12.5007 17.0832 11.9423 17.0832 11.2507V8.75065C17.0832 8.05898 16.5248 7.50065 15.8332 7.50065H12.4998C11.8082 7.50065 11.2498 8.05898 11.2498 8.75065Z" fill="#21ABA5"/>
</svg>
