<svg width="114" height="39" viewBox="0 0 114 39" fill="none" xmlns="http://www.w3.org/2000/svg">
<mask id="path-1-outside-1_431_1889" maskUnits="userSpaceOnUse" x="92" y="0" width="22" height="22" fill="black">
<rect fill="white" x="92" width="22" height="22"/>
<path fill-rule="evenodd" clip-rule="evenodd" d="M106.559 18.1832C106.38 18.1832 106.207 18.2446 106.08 18.3538L103 21L99.9201 18.3538C99.7929 18.2446 99.6205 18.1832 99.4407 18.1832H94.6949C93.7546 18.1832 93 17.5285 93 16.727V2.45621C93 1.65473 93.7546 1 94.6949 1H111.305C112.236 1 113 1.65662 113 2.45621V16.727C113 17.5266 112.236 18.1832 111.305 18.1832H106.559ZM111.305 17.3095C111.68 17.3095 111.983 17.0487 111.983 16.727V2.45621C111.983 2.13451 111.68 1.87372 111.305 1.87372H94.6949C94.3205 1.87372 94.0169 2.13451 94.0169 2.45621V16.727C94.0169 17.0487 94.3205 17.3095 94.6949 17.3095H100.145L102.521 19.3509C102.785 19.5784 103.215 19.5784 103.479 19.3509L105.855 17.3095H111.305Z"/>
</mask>
<path fill-rule="evenodd" clip-rule="evenodd" d="M106.559 18.1832C106.38 18.1832 106.207 18.2446 106.08 18.3538L103 21L99.9201 18.3538C99.7929 18.2446 99.6205 18.1832 99.4407 18.1832H94.6949C93.7546 18.1832 93 17.5285 93 16.727V2.45621C93 1.65473 93.7546 1 94.6949 1H111.305C112.236 1 113 1.65662 113 2.45621V16.727C113 17.5266 112.236 18.1832 111.305 18.1832H106.559ZM111.305 17.3095C111.68 17.3095 111.983 17.0487 111.983 16.727V2.45621C111.983 2.13451 111.68 1.87372 111.305 1.87372H94.6949C94.3205 1.87372 94.0169 2.13451 94.0169 2.45621V16.727C94.0169 17.0487 94.3205 17.3095 94.6949 17.3095H100.145L102.521 19.3509C102.785 19.5784 103.215 19.5784 103.479 19.3509L105.855 17.3095H111.305Z" fill="#555555"/>
<path d="M106.08 18.3538L106.406 18.7331L106.406 18.7331L106.08 18.3538ZM103 21L102.674 21.3792C102.862 21.5402 103.138 21.5402 103.326 21.3792L103 21ZM99.9201 18.3538L99.5942 18.7331L99.5942 18.7331L99.9201 18.3538ZM100.145 17.3095L100.47 16.9303C100.38 16.8524 100.264 16.8095 100.145 16.8095V17.3095ZM102.521 19.3509L102.195 19.7301H102.195L102.521 19.3509ZM103.479 19.3509L103.805 19.7301L103.805 19.7301L103.479 19.3509ZM105.855 17.3095V16.8095C105.736 16.8095 105.62 16.8524 105.53 16.9303L105.855 17.3095ZM106.406 18.7331C106.435 18.7077 106.49 18.6832 106.559 18.6832V17.6832C106.269 17.6832 105.979 17.7815 105.754 17.9746L106.406 18.7331ZM103.326 21.3792L106.406 18.7331L105.754 17.9746L102.674 20.6207L103.326 21.3792ZM99.5942 18.7331L102.674 21.3792L103.326 20.6207L100.246 17.9746L99.5942 18.7331ZM99.4407 18.6832C99.5103 18.6832 99.5647 18.7077 99.5942 18.7331L100.246 17.9746C100.021 17.7815 99.7306 17.6832 99.4407 17.6832V18.6832ZM94.6949 18.6832H99.4407V17.6832H94.6949V18.6832ZM92.5 16.727C92.5 17.8719 93.5509 18.6832 94.6949 18.6832V17.6832C93.9584 17.6832 93.5 17.1852 93.5 16.727H92.5ZM92.5 2.45621V16.727H93.5V2.45621H92.5ZM94.6949 0.5C93.5509 0.5 92.5 1.31136 92.5 2.45621H93.5C93.5 1.99809 93.9584 1.5 94.6949 1.5V0.5ZM111.305 0.5H94.6949V1.5H111.305V0.5ZM113.5 2.45621C113.5 1.31196 112.438 0.5 111.305 0.5V1.5C112.034 1.5 112.5 2.00129 112.5 2.45621H113.5ZM113.5 16.727V2.45621H112.5V16.727H113.5ZM111.305 18.6832C112.438 18.6832 113.5 17.8713 113.5 16.727H112.5C112.5 17.1819 112.034 17.6832 111.305 17.6832V18.6832ZM106.559 18.6832H111.305V17.6832H106.559V18.6832ZM111.483 16.727C111.483 16.7274 111.483 16.7288 111.481 16.7329C111.479 16.7378 111.473 16.7477 111.459 16.7597C111.43 16.7842 111.377 16.8095 111.305 16.8095V17.8095C111.882 17.8095 112.483 17.3934 112.483 16.727H111.483ZM111.483 2.45621V16.727H112.483V2.45621H111.483ZM111.305 2.37372C111.377 2.37372 111.43 2.39899 111.459 2.42358C111.473 2.43551 111.479 2.44544 111.481 2.45032C111.483 2.45446 111.483 2.4558 111.483 2.45621H112.483C112.483 1.78984 111.882 1.37372 111.305 1.37372V2.37372ZM94.6949 2.37372H111.305V1.37372H94.6949V2.37372ZM94.5169 2.45621C94.5169 2.4558 94.5168 2.45446 94.5188 2.45032C94.5212 2.44544 94.5275 2.43551 94.5414 2.42358C94.57 2.39899 94.6227 2.37372 94.6949 2.37372V1.37372C94.1183 1.37372 93.5169 1.78984 93.5169 2.45621H94.5169ZM94.5169 16.727V2.45621H93.5169V16.727H94.5169ZM94.6949 16.8095C94.6227 16.8095 94.57 16.7842 94.5414 16.7597C94.5275 16.7477 94.5212 16.7378 94.5188 16.7329C94.5168 16.7288 94.5169 16.7274 94.5169 16.727H93.5169C93.5169 17.3934 94.1183 17.8095 94.6949 17.8095V16.8095ZM100.145 16.8095H94.6949V17.8095H100.145V16.8095ZM102.846 18.9716L100.47 16.9303L99.8188 17.6888L102.195 19.7301L102.846 18.9716ZM103.154 18.9716C103.076 19.0381 102.924 19.0381 102.846 18.9716L102.195 19.7301C102.647 20.1186 103.353 20.1186 103.805 19.7301L103.154 18.9716ZM105.53 16.9303L103.154 18.9716L103.805 19.7301L106.181 17.6888L105.53 16.9303ZM111.305 16.8095H105.855V17.8095H111.305V16.8095Z" fill="#555555" mask="url(#path-1-outside-1_431_1889)"/>
<path d="M100.164 6.33325V12.4947H99V6.33325H100.164Z" fill="#555555"/>
<path d="M106.372 6.33325V12.4947H105.204L102.584 8.22062V12.4947H101.421V6.33325H102.584L105.212 10.6116V6.33325H106.372Z" fill="#555555"/>
<path d="M32.0703 31.3955C32.0703 31.2178 32.043 31.0583 31.9883 30.917C31.9382 30.7712 31.8424 30.639 31.7012 30.5205C31.5599 30.3975 31.3617 30.2767 31.1064 30.1582C30.8512 30.0397 30.5208 29.9167 30.1152 29.7891C29.6641 29.6432 29.2357 29.4792 28.8301 29.2969C28.429 29.1146 28.0736 28.9027 27.7637 28.6611C27.4583 28.415 27.2168 28.1302 27.0391 27.8066C26.8659 27.4831 26.7793 27.1071 26.7793 26.6787C26.7793 26.264 26.8704 25.888 27.0527 25.5508C27.235 25.209 27.4902 24.9173 27.8184 24.6758C28.1465 24.4297 28.5339 24.2406 28.9805 24.1084C29.4316 23.9762 29.9261 23.9102 30.4639 23.9102C31.1976 23.9102 31.8379 24.0423 32.3848 24.3066C32.9316 24.571 33.3555 24.9333 33.6562 25.3936C33.9616 25.8538 34.1143 26.3802 34.1143 26.9727H32.0771C32.0771 26.681 32.0156 26.4258 31.8926 26.207C31.7741 25.9837 31.5918 25.8083 31.3457 25.6807C31.1042 25.5531 30.7988 25.4893 30.4297 25.4893C30.0742 25.4893 29.778 25.5439 29.541 25.6533C29.304 25.7581 29.1263 25.9017 29.0078 26.084C28.8893 26.2617 28.8301 26.4622 28.8301 26.6855C28.8301 26.8542 28.8711 27.0068 28.9531 27.1436C29.0397 27.2803 29.1673 27.4079 29.3359 27.5264C29.5046 27.6449 29.7119 27.7565 29.958 27.8613C30.2041 27.9661 30.4889 28.0687 30.8125 28.1689C31.3548 28.333 31.8311 28.5176 32.2412 28.7227C32.6559 28.9277 33.0023 29.1579 33.2803 29.4131C33.5583 29.6683 33.7679 29.9577 33.9092 30.2812C34.0505 30.6048 34.1211 30.9717 34.1211 31.3818C34.1211 31.8148 34.0368 32.2021 33.8682 32.5439C33.6995 32.8857 33.4557 33.1751 33.1367 33.4121C32.8177 33.6491 32.4372 33.8291 31.9951 33.9521C31.5531 34.0752 31.0586 34.1367 30.5117 34.1367C30.0195 34.1367 29.5342 34.0729 29.0557 33.9453C28.5771 33.8132 28.1419 33.6149 27.75 33.3506C27.3626 33.0863 27.0527 32.749 26.8203 32.3389C26.5879 31.9287 26.4717 31.4434 26.4717 30.8828H28.5293C28.5293 31.1927 28.5771 31.4548 28.6729 31.6689C28.7686 31.8831 28.903 32.0563 29.0762 32.1885C29.2539 32.3206 29.4635 32.4163 29.7051 32.4756C29.9512 32.5348 30.2201 32.5645 30.5117 32.5645C30.8672 32.5645 31.1589 32.5143 31.3867 32.4141C31.6191 32.3138 31.79 32.1748 31.8994 31.9971C32.0133 31.8193 32.0703 31.6188 32.0703 31.3955ZM42.1943 32.4004V34H36.8965V32.4004H42.1943ZM37.5664 24.0469V34H35.5156V24.0469H37.5664ZM41.5039 28.1006V29.6592H36.8965V28.1006H41.5039ZM42.1875 24.0469V25.6533H36.8965V24.0469H42.1875ZM43.3906 24.0469H47.1025C47.8636 24.0469 48.5176 24.1608 49.0645 24.3887C49.6159 24.6165 50.0397 24.9538 50.3359 25.4004C50.6322 25.847 50.7803 26.3962 50.7803 27.0479C50.7803 27.5811 50.6891 28.0391 50.5068 28.4219C50.3291 28.8001 50.0762 29.1169 49.748 29.3721C49.4245 29.6227 49.0439 29.8232 48.6064 29.9736L47.957 30.3154H44.7305L44.7168 28.7158H47.1162C47.4762 28.7158 47.7747 28.652 48.0117 28.5244C48.2487 28.3968 48.4264 28.2191 48.5449 27.9912C48.668 27.7633 48.7295 27.499 48.7295 27.1982C48.7295 26.8792 48.6702 26.6035 48.5518 26.3711C48.4333 26.1387 48.2533 25.9609 48.0117 25.8379C47.7702 25.7148 47.4671 25.6533 47.1025 25.6533H45.4414V34H43.3906V24.0469ZM48.9551 34L46.6855 29.5635L48.8525 29.5498L51.1494 33.9043V34H48.9551ZM55.8115 31.9219L58.1562 24.0469H60.4395L56.9736 34H55.4697L55.8115 31.9219ZM53.6514 24.0469L55.9893 31.9219L56.3447 34H54.8271L51.3818 24.0469H53.6514ZM63.5498 24.0469V34H61.5059V24.0469H63.5498ZM71.2402 30.6982H73.2842C73.2432 31.3682 73.0586 31.9629 72.7305 32.4824C72.4069 33.002 71.9535 33.4076 71.3701 33.6992C70.7913 33.9909 70.0941 34.1367 69.2783 34.1367C68.6403 34.1367 68.0684 34.0273 67.5625 33.8086C67.0566 33.5853 66.6237 33.2663 66.2637 32.8516C65.9082 32.4368 65.637 31.9355 65.4502 31.3477C65.2633 30.7598 65.1699 30.1012 65.1699 29.3721V28.6816C65.1699 27.9525 65.2656 27.2939 65.457 26.7061C65.653 26.1136 65.931 25.61 66.291 25.1953C66.6556 24.7806 67.0908 24.4616 67.5967 24.2383C68.1025 24.015 68.6676 23.9033 69.292 23.9033C70.1214 23.9033 70.821 24.0537 71.3906 24.3545C71.9648 24.6553 72.4092 25.07 72.7236 25.5986C73.0426 26.1273 73.234 26.7288 73.2979 27.4033H71.2471C71.2243 27.0023 71.1445 26.6628 71.0078 26.3848C70.8711 26.1022 70.6637 25.8903 70.3857 25.749C70.1123 25.6032 69.7477 25.5303 69.292 25.5303C68.9502 25.5303 68.6517 25.5941 68.3965 25.7217C68.1413 25.8493 67.9271 26.043 67.7539 26.3027C67.5807 26.5625 67.4508 26.8906 67.3643 27.2871C67.2822 27.679 67.2412 28.1393 67.2412 28.668V29.3721C67.2412 29.887 67.2799 30.3405 67.3574 30.7324C67.4349 31.1198 67.5534 31.4479 67.7129 31.7168C67.877 31.9811 68.0866 32.1816 68.3418 32.3184C68.6016 32.4505 68.9137 32.5166 69.2783 32.5166C69.7067 32.5166 70.0599 32.4482 70.3379 32.3115C70.6159 32.1748 70.8278 31.972 70.9736 31.7031C71.124 31.4342 71.2129 31.0993 71.2402 30.6982ZM81.3096 32.4004V34H76.0117V32.4004H81.3096ZM76.6816 24.0469V34H74.6309V24.0469H76.6816ZM80.6191 28.1006V29.6592H76.0117V28.1006H80.6191ZM81.3027 24.0469V25.6533H76.0117V24.0469H81.3027Z" fill="#555555"/>
<path d="M88.1489 25L87 26.1489L90.7318 29.8888L87 33.6288L88.1489 34.7777L93.0377 29.8888L88.1489 25Z" fill="#555555"/>
<path d="M93.5185 25L92.3696 26.1489L96.1014 29.8888L92.3696 33.6288L93.5185 34.7777L98.4073 29.8888L93.5185 25Z" fill="#555555"/>
<path d="M98.7417 25L97.5928 26.1489L101.325 29.8888L97.5928 33.6288L98.7417 34.7777L103.63 29.8888L98.7417 25Z" fill="#555555"/>
<path d="M104.111 25L102.962 26.1489L106.694 29.8888L102.962 33.6288L104.111 34.7777L109 29.8888L104.111 25Z" fill="#555555"/>
<path d="M3 24.5H1V35.5C1 36.61 1.89 37.5 3 37.5H20V35.5H3V24.5Z" fill="#555555"/>
<path d="M18 20.5V18.5C18 17.4 17.1 16.5 16 16.5H12C10.9 16.5 10 17.4 10 18.5V20.5H5V31.5C5 32.6 5.9 33.5 7 33.5H21C22.1 33.5 23 32.6 23 31.5V20.5H18ZM12 18.5H16V20.5H12V18.5ZM21 31.5H7V22.5H21V31.5Z" fill="#555555"/>
</svg>
