<svg width="114" height="42" viewBox="0 0 114 42" fill="none" xmlns="http://www.w3.org/2000/svg">
<mask id="path-1-outside-1_426_1942" maskUnits="userSpaceOnUse" x="81.4216" y="4" width="18" height="18" fill="black">
<rect fill="white" x="81.4216" y="4" width="18" height="18"/>
<path fill-rule="evenodd" clip-rule="evenodd" d="M93.1263 18.5657C92.9844 18.5657 92.8482 18.6141 92.7479 18.7004L90.3163 20.7894L87.8848 18.7004C87.7845 18.6141 87.6483 18.5657 87.5064 18.5657H83.7597C83.0174 18.5657 82.4216 18.0488 82.4216 17.416V6.14963C82.4216 5.51689 83.0174 5 83.7597 5H96.873C97.6077 5 98.2111 5.51839 98.2111 6.14963V17.416C98.2111 18.0473 97.6077 18.5657 96.873 18.5657H93.1263ZM96.873 17.8759C97.1686 17.8759 97.4082 17.67 97.4082 17.416V6.14963C97.4082 5.89566 97.1686 5.68978 96.873 5.68978H83.7597C83.4641 5.68978 83.2245 5.89566 83.2245 6.14963V17.416C83.2245 17.67 83.4641 17.8759 83.7597 17.8759H88.0621L89.9379 19.4875C90.1469 19.6671 90.4858 19.6671 90.6948 19.4875L92.5706 17.8759H96.873Z"/>
</mask>
<path fill-rule="evenodd" clip-rule="evenodd" d="M93.1263 18.5657C92.9844 18.5657 92.8482 18.6141 92.7479 18.7004L90.3163 20.7894L87.8848 18.7004C87.7845 18.6141 87.6483 18.5657 87.5064 18.5657H83.7597C83.0174 18.5657 82.4216 18.0488 82.4216 17.416V6.14963C82.4216 5.51689 83.0174 5 83.7597 5H96.873C97.6077 5 98.2111 5.51839 98.2111 6.14963V17.416C98.2111 18.0473 97.6077 18.5657 96.873 18.5657H93.1263ZM96.873 17.8759C97.1686 17.8759 97.4082 17.67 97.4082 17.416V6.14963C97.4082 5.89566 97.1686 5.68978 96.873 5.68978H83.7597C83.4641 5.68978 83.2245 5.89566 83.2245 6.14963V17.416C83.2245 17.67 83.4641 17.8759 83.7597 17.8759H88.0621L89.9379 19.4875C90.1469 19.6671 90.4858 19.6671 90.6948 19.4875L92.5706 17.8759H96.873Z" fill="#555555"/>
<path d="M92.7479 18.7004L92.422 18.3211L92.422 18.3211L92.7479 18.7004ZM90.3163 20.7894L89.9905 21.1687C90.1779 21.3297 90.4548 21.3297 90.6422 21.1687L90.3163 20.7894ZM87.8848 18.7004L88.2107 18.3211L88.2107 18.3211L87.8848 18.7004ZM88.0621 17.8759L88.3879 17.4966C88.2972 17.4187 88.1816 17.3759 88.0621 17.3759V17.8759ZM89.9379 19.4875L89.612 19.8667L89.612 19.8667L89.9379 19.4875ZM90.6948 19.4875L91.0206 19.8667L91.0206 19.8667L90.6948 19.4875ZM92.5706 17.8759V17.3759C92.451 17.3759 92.3354 17.4187 92.2448 17.4966L92.5706 17.8759ZM93.0737 19.0796C93.0765 19.0772 93.0945 19.0657 93.1263 19.0657V18.0657C92.8742 18.0657 92.62 18.151 92.422 18.3211L93.0737 19.0796ZM90.6422 21.1687L93.0737 19.0796L92.422 18.3211L89.9905 20.4102L90.6422 21.1687ZM87.559 19.0796L89.9905 21.1687L90.6422 20.4102L88.2107 18.3211L87.559 19.0796ZM87.5064 19.0657C87.5382 19.0657 87.5562 19.0772 87.559 19.0796L88.2107 18.3211C88.0127 18.151 87.7585 18.0657 87.5064 18.0657V19.0657ZM83.7597 19.0657H87.5064V18.0657H83.7597V19.0657ZM81.9216 17.416C81.9216 18.3921 82.8136 19.0657 83.7597 19.0657V18.0657C83.2211 18.0657 82.9216 17.7054 82.9216 17.416H81.9216ZM81.9216 6.14963V17.416H82.9216V6.14963H81.9216ZM83.7597 4.5C82.8136 4.5 81.9216 5.17353 81.9216 6.14963H82.9216C82.9216 5.86025 83.2211 5.5 83.7597 5.5V4.5ZM96.873 4.5H83.7597V5.5H96.873V4.5ZM98.7111 6.14963C98.7111 5.17372 97.8099 4.5 96.873 4.5V5.5C97.4055 5.5 97.7111 5.86305 97.7111 6.14963H98.7111ZM98.7111 17.416V6.14963H97.7111V17.416H98.7111ZM96.873 19.0657C97.8099 19.0657 98.7111 18.392 98.7111 17.416H97.7111C97.7111 17.7026 97.4055 18.0657 96.873 18.0657V19.0657ZM93.1263 19.0657H96.873V18.0657H93.1263V19.0657ZM96.9082 17.416C96.9082 17.3995 96.9124 17.3847 96.9176 17.3742C96.9224 17.3644 96.9266 17.3611 96.9256 17.362C96.9228 17.3643 96.9058 17.3759 96.873 17.3759V18.3759C97.3708 18.3759 97.9082 18.0147 97.9082 17.416H96.9082ZM96.9082 6.14963V17.416H97.9082V6.14963H96.9082ZM96.873 6.18978C96.9058 6.18978 96.9228 6.20132 96.9256 6.20372C96.9266 6.20456 96.9224 6.20127 96.9176 6.19148C96.9124 6.18094 96.9082 6.16616 96.9082 6.14963H97.9082C97.9082 5.551 97.3708 5.18978 96.873 5.18978V6.18978ZM83.7597 6.18978H96.873V5.18978H83.7597V6.18978ZM83.7245 6.14963C83.7245 6.16616 83.7203 6.18094 83.7151 6.19148C83.7103 6.20127 83.7061 6.20456 83.7071 6.20372C83.7099 6.20132 83.7269 6.18978 83.7597 6.18978V5.18978C83.2619 5.18978 82.7245 5.551 82.7245 6.14963H83.7245ZM83.7245 17.416V6.14963H82.7245V17.416H83.7245ZM83.7597 17.3759C83.7269 17.3759 83.7099 17.3643 83.7071 17.362C83.7061 17.3611 83.7103 17.3644 83.7151 17.3742C83.7203 17.3847 83.7245 17.3995 83.7245 17.416H82.7245C82.7245 18.0147 83.2619 18.3759 83.7597 18.3759V17.3759ZM88.0621 17.3759H83.7597V18.3759H88.0621V17.3759ZM90.2637 19.1082L88.3879 17.4966L87.7362 18.2551L89.612 19.8667L90.2637 19.1082ZM90.369 19.1082C90.3655 19.1113 90.3481 19.1222 90.3163 19.1222C90.2846 19.1222 90.2672 19.1113 90.2637 19.1082L89.612 19.8667C90.0085 20.2073 90.6242 20.2073 91.0206 19.8667L90.369 19.1082ZM92.2448 17.4966L90.369 19.1082L91.0206 19.8667L92.8964 18.2551L92.2448 17.4966ZM96.873 17.3759H92.5706V18.3759H96.873V17.3759Z" fill="#555555" mask="url(#path-1-outside-1_426_1942)"/>
<path d="M88.0772 9.21051V14.0748H87.1584V9.21051H88.0772Z" fill="#555555"/>
<path d="M92.9782 9.21051V14.0748H92.0561L89.9882 10.7005V14.0748H89.0694V9.21051H89.9882L92.0628 12.5881V9.21051H92.9782Z" fill="#555555"/>
<path d="M34.3191 28.9963C34.3191 28.856 34.2975 28.7301 34.2544 28.6186C34.2148 28.5034 34.1392 28.3991 34.0277 28.3056C33.9162 28.2084 33.7597 28.1131 33.5582 28.0195C33.3567 27.926 33.0959 27.8288 32.7757 27.7281C32.4195 27.613 32.0813 27.4835 31.7611 27.3395C31.4444 27.1956 31.1638 27.0283 30.9192 26.8376C30.6781 26.6434 30.4874 26.4185 30.3471 26.163C30.2104 25.9076 30.142 25.6108 30.142 25.2726C30.142 24.9452 30.214 24.6483 30.3579 24.3821C30.5018 24.1123 30.7033 23.882 30.9623 23.6913C31.2214 23.497 31.5272 23.3477 31.8798 23.2434C32.236 23.139 32.6263 23.0869 33.0509 23.0869C33.6301 23.0869 34.1356 23.1912 34.5674 23.3999C34.9991 23.6086 35.3337 23.8946 35.5712 24.258C35.8122 24.6214 35.9328 25.0369 35.9328 25.5046H34.3245C34.3245 25.2744 34.276 25.0729 34.1788 24.9002C34.0853 24.7239 33.9414 24.5854 33.7471 24.4846C33.5564 24.3839 33.3153 24.3335 33.0239 24.3335C32.7433 24.3335 32.5094 24.3767 32.3223 24.4631C32.1352 24.5458 31.9949 24.6591 31.9014 24.8031C31.8078 24.9434 31.7611 25.1017 31.7611 25.278C31.7611 25.4111 31.7934 25.5316 31.8582 25.6396C31.9266 25.7475 32.0273 25.8482 32.1604 25.9418C32.2935 26.0353 32.4572 26.1235 32.6515 26.2062C32.8458 26.289 33.0707 26.3699 33.3261 26.4491C33.7543 26.5786 34.1302 26.7243 34.454 26.8862C34.7815 27.0481 35.0549 27.2298 35.2744 27.4313C35.4938 27.6328 35.6593 27.8612 35.7709 28.1167C35.8824 28.3721 35.9382 28.6617 35.9382 28.9856C35.9382 29.3274 35.8716 29.6332 35.7385 29.903C35.6054 30.1728 35.4129 30.4013 35.161 30.5884C34.9092 30.7755 34.6088 30.9176 34.2598 31.0147C33.9108 31.1119 33.5204 31.1605 33.0887 31.1605C32.7001 31.1605 32.3169 31.1101 31.9392 31.0093C31.5614 30.905 31.2178 30.7485 30.9084 30.5398C30.6025 30.3312 30.3579 30.0649 30.1744 29.7411C29.9909 29.4173 29.8992 29.0341 29.8992 28.5916H31.5236C31.5236 28.8362 31.5614 29.0431 31.6369 29.2122C31.7125 29.3813 31.8186 29.518 31.9553 29.6224C32.0957 29.7267 32.2612 29.8023 32.4518 29.849C32.6461 29.8958 32.8584 29.9192 33.0887 29.9192C33.3693 29.9192 33.5996 29.8796 33.7795 29.8005C33.9629 29.7213 34.0979 29.6116 34.1842 29.4713C34.2742 29.3309 34.3191 29.1726 34.3191 28.9963Z" fill="#555555"/>
<path d="M42.3118 29.7897V31.0525H38.1293V29.7897H42.3118ZM38.6581 23.1948V31.0525H37.0391V23.1948H38.6581ZM41.7667 26.3951V27.6256H38.1293V26.3951H41.7667ZM42.3064 23.1948V24.4631H38.1293V23.1948H42.3064Z" fill="#555555"/>
<path d="M43.2562 23.1948H46.1866C46.7875 23.1948 47.3038 23.2848 47.7355 23.4647C48.1708 23.6445 48.5054 23.9108 48.7393 24.2634C48.9732 24.616 49.0901 25.0495 49.0901 25.564C49.0901 25.9849 49.0181 26.3465 48.8742 26.6488C48.7339 26.9474 48.5342 27.1974 48.2752 27.3989C48.0197 27.5968 47.7193 27.7551 47.3739 27.8738L46.8612 28.1437H44.314L44.3032 26.8808H46.1974C46.4817 26.8808 46.7173 26.8304 46.9044 26.7297C47.0915 26.629 47.2318 26.4886 47.3254 26.3088C47.4225 26.1289 47.4711 25.9202 47.4711 25.6827C47.4711 25.4309 47.4243 25.2132 47.3308 25.0297C47.2372 24.8462 47.0951 24.7059 46.9044 24.6088C46.7137 24.5116 46.4745 24.4631 46.1866 24.4631H44.8752V31.0525H43.2562V23.1948ZM47.6492 31.0525L45.8574 27.55L47.5682 27.5392L49.3815 30.977V31.0525H47.6492Z" fill="#555555"/>
<path d="M53.0621 29.4119L54.9132 23.1948H56.7157L53.9796 31.0525H52.7923L53.0621 29.4119ZM51.3567 23.1948L53.2024 29.4119L53.4831 31.0525H52.285L49.565 23.1948H51.3567Z" fill="#555555"/>
<path d="M59.1713 23.1948V31.0525H57.5576V23.1948H59.1713Z" fill="#555555"/>
<path d="M65.2426 28.4459H66.8563C66.8239 28.9748 66.6782 29.4443 66.4191 29.8544C66.1637 30.2646 65.8057 30.5848 65.3452 30.8151C64.8883 31.0453 64.3378 31.1605 63.6938 31.1605C63.1901 31.1605 62.7385 31.0741 62.3392 30.9014C61.9398 30.7251 61.598 30.4733 61.3138 30.1459C61.0332 29.8185 60.8191 29.4227 60.6716 28.9586C60.5241 28.4944 60.4503 27.9746 60.4503 27.3989V26.8538C60.4503 26.2782 60.5259 25.7583 60.677 25.2942C60.8317 24.8264 61.0512 24.4289 61.3354 24.1015C61.6232 23.7741 61.9668 23.5222 62.3662 23.3459C62.7655 23.1696 63.2117 23.0815 63.7046 23.0815C64.3594 23.0815 64.9116 23.2002 65.3614 23.4377C65.8147 23.6751 66.1655 24.0025 66.4137 24.4199C66.6656 24.8372 66.8167 25.3121 66.8671 25.8446H65.248C65.2301 25.528 65.1671 25.26 65.0592 25.0405C64.9512 24.8174 64.7875 24.6501 64.5681 24.5386C64.3522 24.4235 64.0644 24.3659 63.7046 24.3659C63.4347 24.3659 63.1991 24.4163 62.9976 24.517C62.7961 24.6178 62.627 24.7707 62.4903 24.9758C62.3536 25.1808 62.251 25.4399 62.1827 25.7529C62.1179 26.0623 62.0855 26.4257 62.0855 26.843V27.3989C62.0855 27.8055 62.1161 28.1634 62.1773 28.4729C62.2384 28.7787 62.332 29.0377 62.4579 29.25C62.5874 29.4587 62.7529 29.617 62.9544 29.7249C63.1595 29.8293 63.4059 29.8814 63.6938 29.8814C64.032 29.8814 64.3108 29.8275 64.5303 29.7195C64.7497 29.6116 64.917 29.4515 65.0322 29.2392C65.1509 29.0269 65.2211 28.7625 65.2426 28.4459Z" fill="#555555"/>
<path d="M73.1921 29.7897V31.0525H69.0096V29.7897H73.1921ZM69.5385 23.1948V31.0525H67.9194V23.1948H69.5385ZM72.647 26.3951V27.6256H69.0096V26.3951H72.647ZM73.1867 23.1948V24.4631H69.0096V23.1948H73.1867Z" fill="#555555"/>
<path d="M78.5904 23.9472L77.6833 24.8542L80.6295 27.8068L77.6833 30.7594L78.5904 31.6664L82.4499 27.8068L78.5904 23.9472Z" fill="#555555"/>
<path d="M82.8295 23.9472L81.9225 24.8542L84.8686 27.8068L81.9225 30.7594L82.8295 31.6664L86.6891 27.8068L82.8295 23.9472Z" fill="#555555"/>
<path d="M86.9541 23.9472L86.0471 24.8542L88.9933 27.8068L86.0471 30.7594L86.9541 31.6664L90.8137 27.8068L86.9541 23.9472Z" fill="#555555"/>
<path d="M91.1932 23.9472L90.2862 24.8542L93.2324 27.8068L90.2862 30.7594L91.1932 31.6664L95.0528 27.8068L91.1932 23.9472Z" fill="#555555"/>
<g clip-path="url(#clip0_426_1942)">
<path d="M11.3685 23.5527H9.78955V32.2369C9.78955 33.1132 10.4922 33.8158 11.3685 33.8158H24.7895V32.2369H11.3685V23.5527Z" fill="#555555"/>
<path d="M23.2106 20.3948V18.8159C23.2106 17.9475 22.5 17.2369 21.6316 17.2369H18.4737C17.6053 17.2369 16.8948 17.9475 16.8948 18.8159V20.3948H12.9474V29.079C12.9474 29.9474 13.658 30.6579 14.5264 30.6579H25.579C26.4474 30.6579 27.1579 29.9474 27.1579 29.079V20.3948H23.2106ZM18.4737 18.8159H21.6316V20.3948H18.4737V18.8159ZM25.579 29.079H14.5264V21.9738H25.579V29.079Z" fill="#555555"/>
</g>
<defs>
<clipPath id="clip0_426_1942">
<rect width="18.9473" height="18.9473" fill="white" transform="translate(9 16.0527)"/>
</clipPath>
</defs>
</svg>
