<svg width="98" height="42" viewBox="0 0 98 42" fill="none" xmlns="http://www.w3.org/2000/svg">
<g clip-path="url(#clip0_58_775)">
<path opacity="0.9" d="M20.1472 7.09899C19.8996 8.23414 17.9417 11.3842 16.3592 13.8024C15.6337 14.9106 13.91 14.538 13.7146 13.2319C13.287 10.3777 12.8247 6.70524 13.0742 5.572C13.4998 3.63206 15.4267 2.40278 17.3807 2.82535C19.3347 3.24791 20.5728 5.16096 20.1472 7.10091V7.09899Z" fill="#242938"/>
<path d="M25.4384 1.23891C27.4659 -0.555059 30.5748 -0.380272 32.3837 1.63266C34.1907 3.64559 34.0146 6.73222 31.9871 8.52811C30.8012 9.57875 26.1155 11.488 22.4281 12.8939C20.7392 13.5374 19.1431 11.7607 19.9808 10.1684C21.8071 6.6938 24.2544 2.28763 25.4384 1.23891Z" fill="#242938"/>
<path d="M3.16889 18.6618C4.79978 18.7771 6.02827 20.1811 5.91219 21.8003C5.79805 23.4195 4.3819 24.6392 2.75101 24.5258C1.12013 24.4106 -0.108362 23.0046 0.00771543 21.3854C0.123793 19.7663 1.538 18.5466 3.17083 18.6618H3.16889Z" fill="#242938"/>
<path d="M5.54273 17.0196C3.73192 15.5099 3.34113 13.0091 4.67215 11.436C6.00511 9.86294 8.55301 9.81493 10.3638 11.3246C12.1746 12.8362 12.5635 15.3371 11.2325 16.9082C9.90145 18.4813 7.35354 18.5312 5.54273 17.0196Z" fill="#242938"/>
<path d="M3.42432 29.733C2.5963 30.2459 1.5071 29.9962 0.990559 29.1741C0.475949 28.352 0.72745 27.2706 1.55547 26.7578C2.38349 26.245 3.47268 26.4966 3.98923 27.3187C4.50577 28.1407 4.25234 29.2221 3.42432 29.733Z" fill="#242938"/>
<path d="M42.3026 7.40439C45.4309 7.3871 47.9826 9.88982 48 12.9957C48.0175 16.1015 45.4966 18.6349 42.3683 18.6522C40.5382 18.6638 35.0226 16.7699 30.7587 15.1968C28.8066 14.4765 28.7892 11.7337 30.7335 10.9923C34.9781 9.3693 40.4705 7.41399 42.3006 7.40247L42.3026 7.40439Z" fill="#242938"/>
</g>
<path d="M19.0117 21.9395L14.959 34H12.1172L17.4297 19.7812H19.2461L19.0117 21.9395ZM22.4004 34L18.3281 21.9395L18.084 19.7812H19.9102L25.252 34H22.4004ZM22.2148 28.7168V30.8359H14.5879V28.7168H22.2148ZM32.1855 28.8145H28.5234V26.7051H32.1855C32.7845 26.7051 33.2695 26.6074 33.6406 26.4121C34.0182 26.2103 34.2949 25.9368 34.4707 25.5918C34.6465 25.2402 34.7344 24.8398 34.7344 24.3906C34.7344 23.9544 34.6465 23.5475 34.4707 23.1699C34.2949 22.7923 34.0182 22.4863 33.6406 22.252C33.2695 22.0176 32.7845 21.9004 32.1855 21.9004H29.4023V34H26.7168V19.7812H32.1855C33.2923 19.7812 34.2363 19.9798 35.0176 20.377C35.8053 20.7676 36.4043 21.3112 36.8145 22.0078C37.2311 22.6979 37.4395 23.4857 37.4395 24.3711C37.4395 25.2891 37.2311 26.0801 36.8145 26.7441C36.4043 27.4082 35.8053 27.9193 35.0176 28.2773C34.2363 28.6354 33.2923 28.8145 32.1855 28.8145ZM42.4102 19.7812V34H39.7246V19.7812H42.4102ZM52.6689 28.8525V32.7285C52.5231 32.9154 52.293 33.1182 51.9785 33.3369C51.6686 33.5557 51.263 33.7448 50.7617 33.9043C50.2604 34.0592 49.6452 34.1367 48.916 34.1367C48.2826 34.1367 47.7038 34.0319 47.1797 33.8223C46.6556 33.6081 46.2044 33.2959 45.8262 32.8857C45.4479 32.4756 45.1562 31.9743 44.9512 31.3818C44.7461 30.7894 44.6436 30.1126 44.6436 29.3516V28.6953C44.6436 27.9342 44.7393 27.2575 44.9307 26.665C45.1266 26.0726 45.4046 25.5713 45.7646 25.1611C46.1292 24.751 46.5645 24.4388 47.0703 24.2246C47.5807 24.0104 48.1504 23.9033 48.7793 23.9033C49.6224 23.9033 50.3151 24.0423 50.8574 24.3203C51.4043 24.5983 51.8236 24.9811 52.1152 25.4688C52.4069 25.9518 52.5892 26.5078 52.6621 27.1367H50.8301C50.7799 26.7904 50.6797 26.4873 50.5293 26.2275C50.3789 25.9632 50.1647 25.7581 49.8867 25.6123C49.6133 25.4619 49.2578 25.3867 48.8203 25.3867C48.4512 25.3867 48.1253 25.4596 47.8428 25.6055C47.5602 25.7513 47.3232 25.9632 47.1318 26.2412C46.9404 26.5192 46.7946 26.8633 46.6943 27.2734C46.5986 27.6836 46.5508 28.153 46.5508 28.6816V29.3516C46.5508 29.8848 46.6055 30.3587 46.7148 30.7734C46.8242 31.1836 46.9814 31.5299 47.1865 31.8125C47.3962 32.0905 47.6536 32.3024 47.959 32.4482C48.2689 32.5895 48.6198 32.6602 49.0117 32.6602C49.3672 32.6602 49.6611 32.6305 49.8936 32.5713C50.1305 32.5075 50.3197 32.4323 50.4609 32.3457C50.6022 32.2591 50.7116 32.1748 50.7891 32.0928V30.2266H48.8135V28.8525H52.6689ZM58.3838 32.4277V29.0166C58.3838 28.766 58.3405 28.5495 58.2539 28.3672C58.1673 28.1849 58.0352 28.0436 57.8574 27.9434C57.6797 27.8431 57.4541 27.793 57.1807 27.793C56.9391 27.793 56.7272 27.834 56.5449 27.916C56.3672 27.998 56.2305 28.1143 56.1348 28.2646C56.0391 28.4105 55.9912 28.5791 55.9912 28.7705H54.1797C54.1797 28.4652 54.2526 28.1758 54.3984 27.9023C54.5443 27.6243 54.7516 27.3783 55.0205 27.1641C55.2939 26.9453 55.6198 26.7744 55.998 26.6514C56.3809 26.5283 56.8092 26.4668 57.2832 26.4668C57.8438 26.4668 58.3428 26.5625 58.7803 26.7539C59.2223 26.9408 59.5687 27.2233 59.8193 27.6016C60.0745 27.9798 60.2021 28.4561 60.2021 29.0303V32.2568C60.2021 32.626 60.2249 32.9427 60.2705 33.207C60.3206 33.4668 60.3936 33.6924 60.4893 33.8838V34H58.6504C58.5638 33.8132 58.4977 33.5762 58.4521 33.2891C58.4066 32.9974 58.3838 32.7103 58.3838 32.4277ZM58.6367 29.4951L58.6504 30.5684H57.5088C57.2262 30.5684 56.9779 30.598 56.7637 30.6572C56.5495 30.7119 56.374 30.7939 56.2373 30.9033C56.1006 31.0081 55.998 31.1357 55.9297 31.2861C55.8613 31.432 55.8271 31.5983 55.8271 31.7852C55.8271 31.9674 55.8682 32.1315 55.9502 32.2773C56.0368 32.4232 56.1598 32.5394 56.3193 32.626C56.4834 32.708 56.6748 32.749 56.8936 32.749C57.2126 32.749 57.4906 32.6852 57.7275 32.5576C57.9645 32.4255 58.1491 32.266 58.2812 32.0791C58.4134 31.8923 58.484 31.7145 58.4932 31.5459L59.0127 32.3252C58.9489 32.512 58.8532 32.7103 58.7256 32.9199C58.598 33.1296 58.4339 33.3255 58.2334 33.5078C58.0329 33.6901 57.7913 33.8405 57.5088 33.959C57.2262 34.0775 56.8981 34.1367 56.5244 34.1367C56.0459 34.1367 55.6175 34.041 55.2393 33.8496C54.861 33.6582 54.5625 33.3962 54.3438 33.0635C54.125 32.7308 54.0156 32.3525 54.0156 31.9287C54.0156 31.5368 54.0885 31.1904 54.2344 30.8896C54.3802 30.5889 54.5967 30.3359 54.8838 30.1309C55.1709 29.9212 55.5264 29.764 55.9502 29.6592C56.3786 29.5498 56.8685 29.4951 57.4199 29.4951H58.6367ZM65.3291 26.6035V27.9023H61.0908V26.6035H65.3291ZM62.2256 24.7852H64.0371V31.8672C64.0371 32.0859 64.0667 32.2546 64.126 32.373C64.1852 32.4915 64.2741 32.5713 64.3926 32.6123C64.5111 32.6533 64.6523 32.6738 64.8164 32.6738C64.9349 32.6738 65.0443 32.667 65.1445 32.6533C65.2448 32.6396 65.3291 32.626 65.3975 32.6123L65.4043 33.9658C65.2539 34.016 65.083 34.057 64.8916 34.0889C64.7048 34.1208 64.4928 34.1367 64.2559 34.1367C63.8503 34.1367 63.4948 34.0684 63.1895 33.9316C62.8841 33.7904 62.6471 33.5648 62.4785 33.2549C62.3099 32.9404 62.2256 32.5257 62.2256 32.0107V24.7852ZM69.8545 34.1367C69.2939 34.1367 68.7904 34.0456 68.3438 33.8633C67.8971 33.681 67.5166 33.4281 67.2021 33.1045C66.8923 32.7764 66.653 32.3958 66.4844 31.9629C66.3203 31.5254 66.2383 31.056 66.2383 30.5547V30.2812C66.2383 29.7116 66.3203 29.1943 66.4844 28.7295C66.6484 28.2601 66.8809 27.8568 67.1816 27.5195C67.4824 27.1823 67.8424 26.9225 68.2617 26.7402C68.681 26.5579 69.1436 26.4668 69.6494 26.4668C70.1735 26.4668 70.6361 26.5557 71.0371 26.7334C71.4382 26.9066 71.7731 27.1527 72.042 27.4717C72.3109 27.7907 72.5137 28.1735 72.6504 28.6201C72.7871 29.0622 72.8555 29.5521 72.8555 30.0898V30.8486H67.0586V29.6045H71.0781V29.4678C71.069 29.1807 71.0143 28.9186 70.9141 28.6816C70.8138 28.4401 70.6589 28.2487 70.4492 28.1074C70.2396 27.9616 69.9684 27.8887 69.6357 27.8887C69.3669 27.8887 69.1322 27.9479 68.9316 28.0664C68.7357 28.1803 68.5716 28.3444 68.4395 28.5586C68.3118 28.7682 68.2161 29.0189 68.1523 29.3105C68.0885 29.6022 68.0566 29.9258 68.0566 30.2812V30.5547C68.0566 30.8646 68.0977 31.1517 68.1797 31.416C68.2663 31.6803 68.3916 31.9105 68.5557 32.1064C68.7243 32.2979 68.9248 32.4482 69.1572 32.5576C69.3942 32.6624 69.6631 32.7148 69.9639 32.7148C70.3421 32.7148 70.6839 32.6419 70.9893 32.4961C71.2992 32.3457 71.568 32.1247 71.7959 31.833L72.7051 32.7764C72.5501 33.0042 72.3405 33.223 72.0762 33.4326C71.8164 33.6423 71.502 33.8132 71.1328 33.9453C70.7637 34.0729 70.3376 34.1367 69.8545 34.1367ZM76.123 32.2227L77.7432 26.6035H78.8916L78.5498 28.5449L76.916 34H75.9248L76.123 32.2227ZM75.2275 26.6035L76.4443 32.2363L76.5537 34H75.4121L73.4707 26.6035H75.2275ZM80.3955 32.1543L81.585 26.6035H83.335L81.4072 34H80.2656L80.3955 32.1543ZM79.0693 26.6035L80.6758 32.168L80.8877 34H79.8965L78.249 28.5449L77.9141 26.6035H79.0693ZM88.4756 32.4277V29.0166C88.4756 28.766 88.4323 28.5495 88.3457 28.3672C88.2591 28.1849 88.127 28.0436 87.9492 27.9434C87.7715 27.8431 87.5459 27.793 87.2725 27.793C87.0309 27.793 86.819 27.834 86.6367 27.916C86.459 27.998 86.3223 28.1143 86.2266 28.2646C86.1309 28.4105 86.083 28.5791 86.083 28.7705H84.2715C84.2715 28.4652 84.3444 28.1758 84.4902 27.9023C84.6361 27.6243 84.8434 27.3783 85.1123 27.1641C85.3857 26.9453 85.7116 26.7744 86.0898 26.6514C86.4727 26.5283 86.901 26.4668 87.375 26.4668C87.9355 26.4668 88.4346 26.5625 88.8721 26.7539C89.3141 26.9408 89.6605 27.2233 89.9111 27.6016C90.1663 27.9798 90.2939 28.4561 90.2939 29.0303V32.2568C90.2939 32.626 90.3167 32.9427 90.3623 33.207C90.4124 33.4668 90.4854 33.6924 90.5811 33.8838V34H88.7422C88.6556 33.8132 88.5895 33.5762 88.5439 33.2891C88.4984 32.9974 88.4756 32.7103 88.4756 32.4277ZM88.7285 29.4951L88.7422 30.5684H87.6006C87.318 30.5684 87.0697 30.598 86.8555 30.6572C86.6413 30.7119 86.4658 30.7939 86.3291 30.9033C86.1924 31.0081 86.0898 31.1357 86.0215 31.2861C85.9531 31.432 85.9189 31.5983 85.9189 31.7852C85.9189 31.9674 85.96 32.1315 86.042 32.2773C86.1286 32.4232 86.2516 32.5394 86.4111 32.626C86.5752 32.708 86.7666 32.749 86.9854 32.749C87.3044 32.749 87.5824 32.6852 87.8193 32.5576C88.0563 32.4255 88.2409 32.266 88.373 32.0791C88.5052 31.8923 88.5758 31.7145 88.585 31.5459L89.1045 32.3252C89.0407 32.512 88.945 32.7103 88.8174 32.9199C88.6898 33.1296 88.5257 33.3255 88.3252 33.5078C88.1247 33.6901 87.8831 33.8405 87.6006 33.959C87.318 34.0775 86.9899 34.1367 86.6162 34.1367C86.1377 34.1367 85.7093 34.041 85.3311 33.8496C84.9528 33.6582 84.6543 33.3962 84.4355 33.0635C84.2168 32.7308 84.1074 32.3525 84.1074 31.9287C84.1074 31.5368 84.1803 31.1904 84.3262 30.8896C84.472 30.5889 84.6885 30.3359 84.9756 30.1309C85.2627 29.9212 85.6182 29.764 86.042 29.6592C86.4704 29.5498 86.9603 29.4951 87.5117 29.4951H88.7285ZM93.9785 33.1797L95.9609 26.6035H97.8955L94.9287 35.1211C94.8604 35.3034 94.7715 35.5016 94.6621 35.7158C94.5573 35.93 94.416 36.1328 94.2383 36.3242C94.0605 36.5202 93.8372 36.6797 93.5684 36.8027C93.304 36.9258 92.9827 36.9873 92.6045 36.9873C92.4404 36.9873 92.2946 36.9759 92.167 36.9531C92.0394 36.9303 91.9049 36.9007 91.7637 36.8643V35.5107C91.8092 35.5153 91.8617 35.5176 91.9209 35.5176C91.9847 35.5221 92.0394 35.5244 92.085 35.5244C92.3493 35.5244 92.568 35.4925 92.7412 35.4287C92.9144 35.3695 93.0534 35.2715 93.1582 35.1348C93.2676 35.0026 93.3587 34.8294 93.4316 34.6152L93.9785 33.1797ZM93.001 26.6035L94.6758 32.0518L94.9697 33.959L93.7256 34.1846L91.0527 26.6035H93.001Z" fill="#333333"/>
<defs>
<clipPath id="clip0_58_775">
<rect width="48" height="30" fill="white"/>
</clipPath>
</defs>
</svg>
