<svg width="18" height="18" viewBox="0 0 18 18" fill="none" xmlns="http://www.w3.org/2000/svg">
<path d="M12.9481 4.50329C12.6556 4.21079 12.1831 4.21079 11.8906 4.50329L7.66062 8.73329L8.71812 9.79079L12.9481 5.55329C13.2331 5.26829 13.2331 4.78829 12.9481 4.50329ZM16.1281 4.49579L8.71812 11.9058L6.10812 9.30329C5.81562 9.01079 5.34312 9.01079 5.05062 9.30329C4.75812 9.59579 4.75812 10.0683 5.05062 10.3608L8.18562 13.4958C8.47812 13.7883 8.95062 13.7883 9.24312 13.4958L17.1856 5.56079C17.4781 5.26829 17.4781 4.79579 17.1856 4.50329H17.1781C16.8931 4.20329 16.4206 4.20329 16.1281 4.49579ZM0.813125 10.3683L3.94812 13.5033C4.24062 13.7958 4.71312 13.7958 5.00562 13.5033L5.53062 12.9783L1.87062 9.30329C1.57812 9.01079 1.10562 9.01079 0.813125 9.30329C0.520625 9.59579 0.520625 10.0758 0.813125 10.3683Z" fill="#21ABA5"/>
</svg>
