<svg width="56" height="56" viewBox="0 0 56 56" fill="none" xmlns="http://www.w3.org/2000/svg">
<path d="M28 4.66602C15.12 4.66602 4.66663 15.1193 4.66663 27.9993C4.66663 40.8793 15.12 51.3327 28 51.3327C40.88 51.3327 51.3333 40.8793 51.3333 27.9993C51.3333 15.1193 40.88 4.66602 28 4.66602ZM28 46.666C17.71 46.666 9.33329 38.2893 9.33329 27.9993C9.33329 17.7093 17.71 9.33268 28 9.33268C38.29 9.33268 46.6666 17.7093 46.6666 27.9993C46.6666 38.2893 38.29 46.666 28 46.666ZM37.0533 19.3427L23.3333 33.0627L18.9466 28.676C18.0366 27.766 16.5666 27.766 15.6566 28.676C14.7466 29.586 14.7466 31.056 15.6566 31.966L21.7 38.0093C22.61 38.9193 24.08 38.9193 24.99 38.0093L40.3666 22.6327C41.2766 21.7227 41.2766 20.2527 40.3666 19.3427C39.4566 18.4327 37.9633 18.4327 37.0533 19.3427Z" fill="#21ABA5"/>
</svg>
