<svg width="114" height="42" viewBox="0 0 114 42" fill="none" xmlns="http://www.w3.org/2000/svg">
<path d="M35.3191 29.7858C35.3191 29.6455 35.2976 29.5196 35.2544 29.408C35.2148 29.2929 35.1392 29.1886 35.0277 29.095C34.9162 28.9979 34.7597 28.9025 34.5582 28.809C34.3567 28.7155 34.0959 28.6183 33.7757 28.5176C33.4195 28.4024 33.0813 28.2729 32.7611 28.129C32.4444 27.9851 32.1638 27.8178 31.9192 27.6271C31.6781 27.4328 31.4874 27.208 31.3471 26.9525C31.2104 26.6971 31.142 26.4002 31.142 26.062C31.142 25.7346 31.214 25.4378 31.3579 25.1716C31.5018 24.9017 31.7033 24.6715 31.9623 24.4808C32.2214 24.2865 32.5272 24.1372 32.8798 24.0328C33.236 23.9285 33.6263 23.8763 34.0509 23.8763C34.6301 23.8763 35.1356 23.9807 35.5674 24.1894C35.9991 24.398 36.3337 24.6841 36.5712 25.0474C36.8122 25.4108 36.9328 25.8264 36.9328 26.2941H35.3245C35.3245 26.0638 35.276 25.8624 35.1788 25.6897C35.0853 25.5134 34.9414 25.3749 34.7471 25.2741C34.5564 25.1734 34.3153 25.123 34.0239 25.123C33.7433 25.123 33.5094 25.1662 33.3223 25.2525C33.1352 25.3353 32.9949 25.4486 32.9014 25.5925C32.8078 25.7328 32.7611 25.8911 32.7611 26.0674C32.7611 26.2006 32.7934 26.3211 32.8582 26.429C32.9266 26.537 33.0273 26.6377 33.1604 26.7312C33.2935 26.8248 33.4572 26.9129 33.6515 26.9957C33.8458 27.0784 34.0707 27.1594 34.3261 27.2385C34.7543 27.3681 35.1303 27.5138 35.4541 27.6757C35.7815 27.8376 36.0549 28.0193 36.2744 28.2208C36.4938 28.4222 36.6593 28.6507 36.7709 28.9061C36.8824 29.1616 36.9382 29.4512 36.9382 29.775C36.9382 30.1168 36.8716 30.4226 36.7385 30.6925C36.6054 30.9623 36.4129 31.1908 36.161 31.3779C35.9092 31.565 35.6088 31.7071 35.2598 31.8042C34.9108 31.9014 34.5204 31.9499 34.0887 31.9499C33.7001 31.9499 33.3169 31.8996 32.9392 31.7988C32.5614 31.6945 32.2178 31.538 31.9084 31.3293C31.6026 31.1206 31.3579 30.8544 31.1744 30.5306C30.9909 30.2068 30.8992 29.8236 30.8992 29.3811H32.5236C32.5236 29.6257 32.5614 29.8326 32.6369 30.0017C32.7125 30.1708 32.8186 30.3075 32.9553 30.4119C33.0957 30.5162 33.2612 30.5917 33.4518 30.6385C33.6461 30.6853 33.8584 30.7087 34.0887 30.7087C34.3693 30.7087 34.5996 30.6691 34.7795 30.5899C34.9629 30.5108 35.0979 30.4011 35.1842 30.2607C35.2742 30.1204 35.3191 29.9621 35.3191 29.7858Z" fill="#555555"/>
<path d="M39.1185 23.9843L40.7591 27.5677L42.3997 23.9843H44.1645L41.5794 28.9817V31.842H39.9388V28.9817L37.3483 23.9843H39.1185Z" fill="#555555"/>
<path d="M48.8867 29.7858C48.8867 29.6455 48.8651 29.5196 48.8219 29.408C48.7823 29.2929 48.7068 29.1886 48.5952 29.095C48.4837 28.9979 48.3272 28.9025 48.1257 28.809C47.9242 28.7155 47.6634 28.6183 47.3432 28.5176C46.987 28.4024 46.6488 28.2729 46.3286 28.129C46.012 27.9851 45.7313 27.8178 45.4867 27.6271C45.2456 27.4328 45.0549 27.208 44.9146 26.9525C44.7779 26.6971 44.7095 26.4002 44.7095 26.062C44.7095 25.7346 44.7815 25.4378 44.9254 25.1716C45.0693 24.9017 45.2708 24.6715 45.5299 24.4808C45.7889 24.2865 46.0947 24.1372 46.4473 24.0328C46.8035 23.9285 47.1939 23.8763 47.6184 23.8763C48.1977 23.8763 48.7032 23.9807 49.1349 24.1894C49.5667 24.398 49.9013 24.6841 50.1387 25.0474C50.3798 25.4108 50.5003 25.8264 50.5003 26.2941H48.8921C48.8921 26.0638 48.8435 25.8624 48.7463 25.6897C48.6528 25.5134 48.5089 25.3749 48.3146 25.2741C48.1239 25.1734 47.8829 25.123 47.5914 25.123C47.3108 25.123 47.0769 25.1662 46.8898 25.2525C46.7028 25.3353 46.5624 25.4486 46.4689 25.5925C46.3754 25.7328 46.3286 25.8911 46.3286 26.0674C46.3286 26.2006 46.361 26.3211 46.4257 26.429C46.4941 26.537 46.5948 26.6377 46.7279 26.7312C46.8611 26.8248 47.0248 26.9129 47.2191 26.9957C47.4133 27.0784 47.6382 27.1594 47.8936 27.2385C48.3218 27.3681 48.6978 27.5138 49.0216 27.6757C49.349 27.8376 49.6224 28.0193 49.8419 28.2208C50.0614 28.4222 50.2269 28.6507 50.3384 28.9061C50.4499 29.1616 50.5057 29.4512 50.5057 29.775C50.5057 30.1168 50.4391 30.4226 50.306 30.6925C50.1729 30.9623 49.9804 31.1908 49.7286 31.3779C49.4767 31.565 49.1763 31.7071 48.8273 31.8042C48.4783 31.9014 48.0879 31.9499 47.6562 31.9499C47.2676 31.9499 46.8845 31.8996 46.5067 31.7988C46.1289 31.6945 45.7853 31.538 45.4759 31.3293C45.1701 31.1206 44.9254 30.8544 44.7419 30.5306C44.5584 30.2068 44.4667 29.8236 44.4667 29.3811H46.0911C46.0911 29.6257 46.1289 29.8326 46.2045 30.0017C46.28 30.1708 46.3861 30.3075 46.5229 30.4119C46.6632 30.5162 46.8287 30.5917 47.0194 30.6385C47.2137 30.6853 47.4259 30.7087 47.6562 30.7087C47.9368 30.7087 48.1671 30.6691 48.347 30.5899C48.5305 30.5108 48.6654 30.4011 48.7517 30.2607C48.8417 30.1204 48.8867 29.9621 48.8867 29.7858Z" fill="#555555"/>
<path d="M55.1199 23.9843V31.842H53.5063V23.9843H55.1199ZM57.5377 23.9843V25.2525H51.1263V23.9843H57.5377Z" fill="#555555"/>
<path d="M63.7332 30.5792V31.842H59.5507V30.5792H63.7332ZM60.0796 23.9843V31.842H58.4606V23.9843H60.0796ZM63.1881 27.1846V28.415H59.5507V27.1846H63.1881ZM63.7278 23.9843V25.2525H59.5507V23.9843H63.7278Z" fill="#555555"/>
<path d="M65.417 23.9843H66.7878L68.8062 29.7534L70.8246 23.9843H72.1954L69.3567 31.842H68.2557L65.417 23.9843ZM64.6777 23.9843H66.043L66.2913 29.6077V31.842H64.6777V23.9843ZM71.5693 23.9843H72.9401V31.842H71.3211V29.6077L71.5693 23.9843Z" fill="#555555"/>
<path d="M94.3564 24.7369L95.2634 25.6439L92.3173 28.5965L95.2634 31.5491L94.3564 32.4561L90.4968 28.5965L94.3564 24.7369Z" fill="#555555"/>
<path d="M90.1173 24.7369L91.0243 25.6439L88.0781 28.5965L91.0243 31.5491L90.1173 32.4561L86.2577 28.5965L90.1173 24.7369Z" fill="#555555"/>
<path d="M85.9936 24.7369L86.9006 25.6439L83.9545 28.5965L86.9006 31.5491L85.9936 32.4561L82.134 28.5965L85.9936 24.7369Z" fill="#555555"/>
<path d="M81.7545 24.7369L82.6615 25.6439L79.7153 28.5965L82.6615 31.5491L81.7545 32.4561L77.8949 28.5965L81.7545 24.7369Z" fill="#555555"/>
<mask id="path-4-outside-1_426_2511" maskUnits="userSpaceOnUse" x="81.6309" y="4" width="18" height="18" fill="black">
<rect fill="white" x="81.6309" y="4" width="18" height="18"/>
<path fill-rule="evenodd" clip-rule="evenodd" d="M93.3356 18.5657C93.1936 18.5657 93.0575 18.6141 92.9571 18.7004L90.5256 20.7895L88.0941 18.7004C87.9937 18.6141 87.8576 18.5657 87.7156 18.5657H83.9689C83.2266 18.5657 82.6309 18.0488 82.6309 17.4161V6.14964C82.6309 5.51689 83.2266 5 83.9689 5H97.0822C97.817 5 98.4203 5.51839 98.4203 6.14964V17.4161C98.4203 18.0473 97.817 18.5657 97.0822 18.5657H93.3356ZM97.0822 17.8759C97.3778 17.8759 97.6175 17.67 97.6175 17.4161V6.14964C97.6175 5.89567 97.3778 5.68978 97.0822 5.68978H83.9689C83.6733 5.68978 83.4337 5.89567 83.4337 6.14964V17.4161C83.4337 17.67 83.6733 17.8759 83.9689 17.8759H88.2713L90.1471 19.4875C90.3561 19.6671 90.695 19.6671 90.9041 19.4875L92.7798 17.8759H97.0822Z"/>
</mask>
<path fill-rule="evenodd" clip-rule="evenodd" d="M93.3356 18.5657C93.1936 18.5657 93.0575 18.6141 92.9571 18.7004L90.5256 20.7895L88.0941 18.7004C87.9937 18.6141 87.8576 18.5657 87.7156 18.5657H83.9689C83.2266 18.5657 82.6309 18.0488 82.6309 17.4161V6.14964C82.6309 5.51689 83.2266 5 83.9689 5H97.0822C97.817 5 98.4203 5.51839 98.4203 6.14964V17.4161C98.4203 18.0473 97.817 18.5657 97.0822 18.5657H93.3356ZM97.0822 17.8759C97.3778 17.8759 97.6175 17.67 97.6175 17.4161V6.14964C97.6175 5.89567 97.3778 5.68978 97.0822 5.68978H83.9689C83.6733 5.68978 83.4337 5.89567 83.4337 6.14964V17.4161C83.4337 17.67 83.6733 17.8759 83.9689 17.8759H88.2713L90.1471 19.4875C90.3561 19.6671 90.695 19.6671 90.9041 19.4875L92.7798 17.8759H97.0822Z" fill="#555555"/>
<path d="M92.9571 18.7004L92.6313 18.3211L92.6313 18.3211L92.9571 18.7004ZM90.5256 20.7895L90.1998 21.1687C90.3871 21.3297 90.664 21.3297 90.8514 21.1687L90.5256 20.7895ZM88.0941 18.7004L88.4199 18.3211L88.4199 18.3211L88.0941 18.7004ZM88.2713 17.8759L88.5972 17.4967C88.5065 17.4188 88.3909 17.3759 88.2713 17.3759V17.8759ZM90.1471 19.4875L89.8213 19.8668L89.8213 19.8668L90.1471 19.4875ZM90.9041 19.4875L91.2299 19.8668L91.2299 19.8668L90.9041 19.4875ZM92.7798 17.8759V17.3759C92.6603 17.3759 92.5447 17.4188 92.454 17.4967L92.7798 17.8759ZM93.2829 19.0796C93.2857 19.0772 93.3038 19.0657 93.3356 19.0657V18.0657C93.0835 18.0657 92.8292 18.1511 92.6313 18.3211L93.2829 19.0796ZM90.8514 21.1687L93.2829 19.0796L92.6313 18.3211L90.1997 20.4102L90.8514 21.1687ZM87.7682 19.0796L90.1998 21.1687L90.8514 20.4102L88.4199 18.3211L87.7682 19.0796ZM87.7156 19.0657C87.7474 19.0657 87.7654 19.0772 87.7682 19.0796L88.4199 18.3211C88.222 18.1511 87.9677 18.0657 87.7156 18.0657V19.0657ZM83.9689 19.0657H87.7156V18.0657H83.9689V19.0657ZM82.1309 17.4161C82.1309 18.3922 83.0228 19.0657 83.9689 19.0657V18.0657C83.4303 18.0657 83.1309 17.7055 83.1309 17.4161H82.1309ZM82.1309 6.14964V17.4161H83.1309V6.14964H82.1309ZM83.9689 4.5C83.0228 4.5 82.1309 5.17353 82.1309 6.14964H83.1309C83.1309 5.86025 83.4303 5.5 83.9689 5.5V4.5ZM97.0822 4.5H83.9689V5.5H97.0822V4.5ZM98.9203 6.14964C98.9203 5.17372 98.0192 4.5 97.0822 4.5V5.5C97.6147 5.5 97.9203 5.86305 97.9203 6.14964H98.9203ZM98.9203 17.4161V6.14964H97.9203V17.4161H98.9203ZM97.0822 19.0657C98.0192 19.0657 98.9203 18.392 98.9203 17.4161H97.9203C97.9203 17.7026 97.6147 18.0657 97.0822 18.0657V19.0657ZM93.3356 19.0657H97.0822V18.0657H93.3356V19.0657ZM97.1175 17.4161C97.1175 17.3995 97.1216 17.3848 97.1268 17.3742C97.1316 17.3644 97.1358 17.3611 97.1349 17.362C97.1321 17.3644 97.115 17.3759 97.0822 17.3759V18.3759C97.5801 18.3759 98.1175 18.0147 98.1175 17.4161H97.1175ZM97.1175 6.14964V17.4161H98.1175V6.14964H97.1175ZM97.0822 6.18978C97.115 6.18978 97.1321 6.20132 97.1349 6.20372C97.1358 6.20456 97.1316 6.20128 97.1268 6.19148C97.1216 6.18095 97.1175 6.16616 97.1175 6.14964H98.1175C98.1175 5.551 97.5801 5.18978 97.0822 5.18978V6.18978ZM83.9689 6.18978H97.0822V5.18978H83.9689V6.18978ZM83.9337 6.14964C83.9337 6.16616 83.9295 6.18095 83.9244 6.19148C83.9195 6.20128 83.9153 6.20456 83.9163 6.20372C83.9191 6.20132 83.9362 6.18978 83.9689 6.18978V5.18978C83.4711 5.18978 82.9337 5.551 82.9337 6.14964H83.9337ZM83.9337 17.4161V6.14964H82.9337V17.4161H83.9337ZM83.9689 17.3759C83.9362 17.3759 83.9191 17.3644 83.9163 17.362C83.9153 17.3611 83.9195 17.3644 83.9244 17.3742C83.9295 17.3848 83.9337 17.3995 83.9337 17.4161H82.9337C82.9337 18.0147 83.4711 18.3759 83.9689 18.3759V17.3759ZM88.2713 17.3759H83.9689V18.3759H88.2713V17.3759ZM90.473 19.1083L88.5972 17.4967L87.9455 18.2552L89.8213 19.8668L90.473 19.1083ZM90.5782 19.1083C90.5747 19.1113 90.5573 19.1222 90.5256 19.1222C90.4938 19.1222 90.4765 19.1113 90.473 19.1083L89.8213 19.8668C90.2177 20.2074 90.8335 20.2074 91.2299 19.8668L90.5782 19.1083ZM92.454 17.4967L90.5782 19.1083L91.2299 19.8668L93.1057 18.2552L92.454 17.4967ZM97.0822 17.3759H92.7798V18.3759H97.0822V17.3759Z" fill="#555555" mask="url(#path-4-outside-1_426_2511)"/>
<path d="M88.3909 11.9881V12.2256C88.3909 12.5739 88.3471 12.8873 88.2596 13.166C88.1721 13.4425 88.0478 13.6778 87.8867 13.872C87.7255 14.0663 87.5336 14.2151 87.3108 14.3185C87.0881 14.4219 86.8404 14.4737 86.5679 14.4737C86.2994 14.4737 86.0528 14.4219 85.828 14.3185C85.6053 14.2151 85.4123 14.0663 85.2492 13.872C85.0861 13.6778 84.9598 13.4425 84.8703 13.166C84.7808 12.8873 84.7361 12.5739 84.7361 12.2256V11.9881C84.7361 11.6377 84.7808 11.3242 84.8703 11.0477C84.9598 10.7712 85.0852 10.5358 85.2463 10.3416C85.4074 10.1453 85.5993 9.9954 85.8221 9.89197C86.0468 9.78853 86.2935 9.73682 86.562 9.73682C86.8345 9.73682 87.0821 9.78853 87.3049 9.89197C87.5276 9.9954 87.7196 10.1453 87.8807 10.3416C88.0438 10.5358 88.1691 10.7712 88.2566 11.0477C88.3461 11.3242 88.3909 11.6377 88.3909 11.9881ZM87.5615 12.2256V11.9817C87.5615 11.7306 87.5396 11.51 87.4958 11.32C87.4521 11.1279 87.3874 10.9664 87.3019 10.8355C87.2164 10.7047 87.1109 10.6065 86.9856 10.5411C86.8603 10.4735 86.7191 10.4397 86.562 10.4397C86.4029 10.4397 86.2616 10.4735 86.1383 10.5411C86.017 10.6065 85.9136 10.7047 85.828 10.8355C85.7425 10.9664 85.6769 11.1279 85.6311 11.32C85.5874 11.51 85.5655 11.7306 85.5655 11.9817V12.2256C85.5655 12.4746 85.5874 12.6952 85.6311 12.8873C85.6769 13.0794 85.7425 13.2419 85.828 13.3749C85.9156 13.5058 86.021 13.605 86.1443 13.6726C86.2676 13.7401 86.4088 13.7739 86.5679 13.7739C86.7271 13.7739 86.8683 13.7401 86.9916 13.6726C87.1149 13.605 87.2183 13.5058 87.3019 13.3749C87.3874 13.2419 87.4521 13.0794 87.4958 12.8873C87.5396 12.6952 87.5615 12.4746 87.5615 12.2256Z" fill="#555555"/>
<path d="M91.5026 9.80014H92.3231V12.862C92.3231 13.2145 92.2515 13.5111 92.1083 13.7517C91.9651 13.9903 91.7702 14.1707 91.5235 14.2932C91.2769 14.4135 90.9964 14.4737 90.6822 14.4737C90.3639 14.4737 90.0805 14.4135 89.8319 14.2932C89.5833 14.1707 89.3883 13.9903 89.2471 13.7517C89.1059 13.5111 89.0353 13.2145 89.0353 12.862V9.80014H89.8558V12.862C89.8558 13.0773 89.8896 13.2536 89.9572 13.3908C90.0248 13.5259 90.1203 13.6261 90.2436 13.6916C90.3669 13.757 90.5131 13.7897 90.6822 13.7897C90.8532 13.7897 90.9994 13.757 91.1208 13.6916C91.2441 13.6261 91.3386 13.5259 91.4042 13.3908C91.4698 13.2536 91.5026 13.0773 91.5026 12.862V9.80014Z" fill="#555555"/>
<path d="M94.9665 9.80014V14.4103H94.149V9.80014H94.9665ZM96.315 9.80014V10.4872H92.8154V9.80014H96.315Z" fill="#555555"/>
<path d="M20.3508 21.5791H24.7367V23.3335H20.3508V21.5791ZM20.3508 27.7194H24.7367V29.4738H20.3508V27.7194ZM25.6139 17.6317H13.3332C12.3683 17.6317 11.5789 18.4212 11.5789 19.3861V31.6668C11.5789 32.6317 12.3683 33.4212 13.3332 33.4212H25.6139C26.5788 33.4212 27.3683 32.6317 27.3683 31.6668V19.3861C27.3683 18.4212 26.5788 17.6317 25.6139 17.6317ZM25.6139 31.6668H13.3332V19.3861H25.6139V31.6668ZM18.5964 20.2633H14.2104V24.6492H18.5964V20.2633ZM17.7192 23.7721H15.0876V21.1405H17.7192V23.7721ZM18.5964 26.4036H14.2104V30.7896H18.5964V26.4036ZM17.7192 29.9124H15.0876V27.2808H17.7192V29.9124Z" fill="#555555"/>
</svg>
