<svg width="114" height="42" viewBox="0 0 114 42" fill="none" xmlns="http://www.w3.org/2000/svg">
<path d="M32.0703 32.3955C32.0703 32.2178 32.043 32.0583 31.9883 31.917C31.9382 31.7712 31.8424 31.639 31.7012 31.5205C31.5599 31.3975 31.3617 31.2767 31.1064 31.1582C30.8512 31.0397 30.5208 30.9167 30.1152 30.7891C29.6641 30.6432 29.2357 30.4792 28.8301 30.2969C28.429 30.1146 28.0736 29.9027 27.7637 29.6611C27.4583 29.415 27.2168 29.1302 27.0391 28.8066C26.8659 28.4831 26.7793 28.1071 26.7793 27.6787C26.7793 27.264 26.8704 26.888 27.0527 26.5508C27.235 26.209 27.4902 25.9173 27.8184 25.6758C28.1465 25.4297 28.5339 25.2406 28.9805 25.1084C29.4316 24.9762 29.9261 24.9102 30.4639 24.9102C31.1976 24.9102 31.8379 25.0423 32.3848 25.3066C32.9316 25.571 33.3555 25.9333 33.6562 26.3936C33.9616 26.8538 34.1143 27.3802 34.1143 27.9727H32.0771C32.0771 27.681 32.0156 27.4258 31.8926 27.207C31.7741 26.9837 31.5918 26.8083 31.3457 26.6807C31.1042 26.5531 30.7988 26.4893 30.4297 26.4893C30.0742 26.4893 29.778 26.5439 29.541 26.6533C29.304 26.7581 29.1263 26.9017 29.0078 27.084C28.8893 27.2617 28.8301 27.4622 28.8301 27.6855C28.8301 27.8542 28.8711 28.0068 28.9531 28.1436C29.0397 28.2803 29.1673 28.4079 29.3359 28.5264C29.5046 28.6449 29.7119 28.7565 29.958 28.8613C30.2041 28.9661 30.4889 29.0687 30.8125 29.1689C31.3548 29.333 31.8311 29.5176 32.2412 29.7227C32.6559 29.9277 33.0023 30.1579 33.2803 30.4131C33.5583 30.6683 33.7679 30.9577 33.9092 31.2812C34.0505 31.6048 34.1211 31.9717 34.1211 32.3818C34.1211 32.8148 34.0368 33.2021 33.8682 33.5439C33.6995 33.8857 33.4557 34.1751 33.1367 34.4121C32.8177 34.6491 32.4372 34.8291 31.9951 34.9521C31.5531 35.0752 31.0586 35.1367 30.5117 35.1367C30.0195 35.1367 29.5342 35.0729 29.0557 34.9453C28.5771 34.8132 28.1419 34.6149 27.75 34.3506C27.3626 34.0863 27.0527 33.749 26.8203 33.3389C26.5879 32.9287 26.4717 32.4434 26.4717 31.8828H28.5293C28.5293 32.1927 28.5771 32.4548 28.6729 32.6689C28.7686 32.8831 28.903 33.0563 29.0762 33.1885C29.2539 33.3206 29.4635 33.4163 29.7051 33.4756C29.9512 33.5348 30.2201 33.5645 30.5117 33.5645C30.8672 33.5645 31.1589 33.5143 31.3867 33.4141C31.6191 33.3138 31.79 33.1748 31.8994 32.9971C32.0133 32.8193 32.0703 32.6188 32.0703 32.3955ZM36.8828 25.0469L38.9609 29.5859L41.0391 25.0469H43.2744L40 31.377V35H37.9219V31.377L34.6406 25.0469H36.8828ZM49.2559 32.3955C49.2559 32.2178 49.2285 32.0583 49.1738 31.917C49.1237 31.7712 49.028 31.639 48.8867 31.5205C48.7454 31.3975 48.5472 31.2767 48.292 31.1582C48.0368 31.0397 47.7064 30.9167 47.3008 30.7891C46.8496 30.6432 46.4212 30.4792 46.0156 30.2969C45.6146 30.1146 45.2591 29.9027 44.9492 29.6611C44.6439 29.415 44.4023 29.1302 44.2246 28.8066C44.0514 28.4831 43.9648 28.1071 43.9648 27.6787C43.9648 27.264 44.056 26.888 44.2383 26.5508C44.4206 26.209 44.6758 25.9173 45.0039 25.6758C45.332 25.4297 45.7194 25.2406 46.166 25.1084C46.6172 24.9762 47.1117 24.9102 47.6494 24.9102C48.3831 24.9102 49.0234 25.0423 49.5703 25.3066C50.1172 25.571 50.541 25.9333 50.8418 26.3936C51.1471 26.8538 51.2998 27.3802 51.2998 27.9727H49.2627C49.2627 27.681 49.2012 27.4258 49.0781 27.207C48.9596 26.9837 48.7773 26.8083 48.5312 26.6807C48.2897 26.5531 47.9844 26.4893 47.6152 26.4893C47.2598 26.4893 46.9635 26.5439 46.7266 26.6533C46.4896 26.7581 46.3118 26.9017 46.1934 27.084C46.0749 27.2617 46.0156 27.4622 46.0156 27.6855C46.0156 27.8542 46.0566 28.0068 46.1387 28.1436C46.2253 28.2803 46.3529 28.4079 46.5215 28.5264C46.6901 28.6449 46.8975 28.7565 47.1436 28.8613C47.3896 28.9661 47.6745 29.0687 47.998 29.1689C48.5404 29.333 49.0166 29.5176 49.4268 29.7227C49.8415 29.9277 50.1878 30.1579 50.4658 30.4131C50.7438 30.6683 50.9535 30.9577 51.0947 31.2812C51.236 31.6048 51.3066 31.9717 51.3066 32.3818C51.3066 32.8148 51.2223 33.2021 51.0537 33.5439C50.8851 33.8857 50.6413 34.1751 50.3223 34.4121C50.0033 34.6491 49.6227 34.8291 49.1807 34.9521C48.7386 35.0752 48.2441 35.1367 47.6973 35.1367C47.2051 35.1367 46.7197 35.0729 46.2412 34.9453C45.7627 34.8132 45.3275 34.6149 44.9355 34.3506C44.5482 34.0863 44.2383 33.749 44.0059 33.3389C43.7734 32.9287 43.6572 32.4434 43.6572 31.8828H45.7148C45.7148 32.1927 45.7627 32.4548 45.8584 32.6689C45.9541 32.8831 46.0885 33.0563 46.2617 33.1885C46.4395 33.3206 46.6491 33.4163 46.8906 33.4756C47.1367 33.5348 47.4056 33.5645 47.6973 33.5645C48.0527 33.5645 48.3444 33.5143 48.5723 33.4141C48.8047 33.3138 48.9756 33.1748 49.085 32.9971C49.1989 32.8193 49.2559 32.6188 49.2559 32.3955ZM57.1514 25.0469V35H55.1074V25.0469H57.1514ZM60.2139 25.0469V26.6533H52.0928V25.0469H60.2139ZM68.0615 33.4004V35H62.7637V33.4004H68.0615ZM63.4336 25.0469V35H61.3828V25.0469H63.4336ZM67.3711 29.1006V30.6592H62.7637V29.1006H67.3711ZM68.0547 25.0469V26.6533H62.7637V25.0469H68.0547ZM70.1943 25.0469H71.9307L74.4873 32.3545L77.0439 25.0469H78.7803L75.1846 35H73.79L70.1943 25.0469ZM69.2578 25.0469H70.9873L71.3018 32.1699V35H69.2578V25.0469ZM77.9873 25.0469H79.7236V35H77.6729V32.1699L77.9873 25.0469Z" fill="#555555"/>
<path d="M106.851 26L108 27.1489L104.268 30.8888L108 34.6288L106.851 35.7777L101.962 30.8888L106.851 26Z" fill="#555555"/>
<path d="M101.482 26L102.63 27.1489L98.8986 30.8888L102.63 34.6288L101.482 35.7777L96.5927 30.8888L101.482 26Z" fill="#555555"/>
<path d="M96.2583 26L97.4072 27.1489L93.6754 30.8888L97.4072 34.6288L96.2583 35.7777L91.3695 30.8888L96.2583 26Z" fill="#555555"/>
<path d="M90.8888 26L92.0377 27.1489L88.3058 30.8888L92.0377 34.6288L90.8888 35.7777L85.9999 30.8888L90.8888 26Z" fill="#555555"/>
<mask id="path-4-outside-1_431_1901" maskUnits="userSpaceOnUse" x="91" y="0" width="22" height="22" fill="black">
<rect fill="white" x="91" width="22" height="22"/>
<path fill-rule="evenodd" clip-rule="evenodd" d="M105.559 18.1832C105.38 18.1832 105.207 18.2446 105.08 18.3538L102 21L98.9201 18.3538C98.7929 18.2446 98.6205 18.1832 98.4407 18.1832H93.6949C92.7546 18.1832 92 17.5285 92 16.727V2.45621C92 1.65473 92.7546 1 93.6949 1H110.305C111.236 1 112 1.65662 112 2.45621V16.727C112 17.5266 111.236 18.1832 110.305 18.1832H105.559ZM110.305 17.3095C110.68 17.3095 110.983 17.0487 110.983 16.727V2.45621C110.983 2.13451 110.68 1.87372 110.305 1.87372H93.6949C93.3205 1.87372 93.0169 2.13451 93.0169 2.45621V16.727C93.0169 17.0487 93.3205 17.3095 93.6949 17.3095H99.1446L101.521 19.3509C101.785 19.5784 102.215 19.5784 102.479 19.3509L104.855 17.3095H110.305Z"/>
</mask>
<path fill-rule="evenodd" clip-rule="evenodd" d="M105.559 18.1832C105.38 18.1832 105.207 18.2446 105.08 18.3538L102 21L98.9201 18.3538C98.7929 18.2446 98.6205 18.1832 98.4407 18.1832H93.6949C92.7546 18.1832 92 17.5285 92 16.727V2.45621C92 1.65473 92.7546 1 93.6949 1H110.305C111.236 1 112 1.65662 112 2.45621V16.727C112 17.5266 111.236 18.1832 110.305 18.1832H105.559ZM110.305 17.3095C110.68 17.3095 110.983 17.0487 110.983 16.727V2.45621C110.983 2.13451 110.68 1.87372 110.305 1.87372H93.6949C93.3205 1.87372 93.0169 2.13451 93.0169 2.45621V16.727C93.0169 17.0487 93.3205 17.3095 93.6949 17.3095H99.1446L101.521 19.3509C101.785 19.5784 102.215 19.5784 102.479 19.3509L104.855 17.3095H110.305Z" fill="#555555"/>
<path d="M105.08 18.3538L105.406 18.7331L105.406 18.7331L105.08 18.3538ZM102 21L101.674 21.3792C101.862 21.5402 102.138 21.5402 102.326 21.3792L102 21ZM98.9201 18.3538L98.5942 18.7331L98.5942 18.7331L98.9201 18.3538ZM99.1446 17.3095L99.4704 16.9303C99.3798 16.8524 99.2642 16.8095 99.1446 16.8095V17.3095ZM101.521 19.3509L101.195 19.7301H101.195L101.521 19.3509ZM102.479 19.3509L102.805 19.7301L102.805 19.7301L102.479 19.3509ZM104.855 17.3095V16.8095C104.736 16.8095 104.62 16.8524 104.53 16.9303L104.855 17.3095ZM105.406 18.7331C105.435 18.7077 105.49 18.6832 105.559 18.6832V17.6832C105.269 17.6832 104.979 17.7815 104.754 17.9746L105.406 18.7331ZM102.326 21.3792L105.406 18.7331L104.754 17.9746L101.674 20.6207L102.326 21.3792ZM98.5942 18.7331L101.674 21.3792L102.326 20.6207L99.2459 17.9746L98.5942 18.7331ZM98.4407 18.6832C98.5103 18.6832 98.5647 18.7077 98.5942 18.7331L99.2459 17.9746C99.0212 17.7815 98.7306 17.6832 98.4407 17.6832V18.6832ZM93.6949 18.6832H98.4407V17.6832H93.6949V18.6832ZM91.5 16.727C91.5 17.8719 92.5509 18.6832 93.6949 18.6832V17.6832C92.9584 17.6832 92.5 17.1852 92.5 16.727H91.5ZM91.5 2.45621V16.727H92.5V2.45621H91.5ZM93.6949 0.5C92.5509 0.5 91.5 1.31136 91.5 2.45621H92.5C92.5 1.99809 92.9584 1.5 93.6949 1.5V0.5ZM110.305 0.5H93.6949V1.5H110.305V0.5ZM112.5 2.45621C112.5 1.31196 111.438 0.5 110.305 0.5V1.5C111.034 1.5 111.5 2.00129 111.5 2.45621H112.5ZM112.5 16.727V2.45621H111.5V16.727H112.5ZM110.305 18.6832C111.438 18.6832 112.5 17.8713 112.5 16.727H111.5C111.5 17.1819 111.034 17.6832 110.305 17.6832V18.6832ZM105.559 18.6832H110.305V17.6832H105.559V18.6832ZM110.483 16.727C110.483 16.7274 110.483 16.7288 110.481 16.7329C110.479 16.7378 110.473 16.7477 110.459 16.7597C110.43 16.7842 110.377 16.8095 110.305 16.8095V17.8095C110.882 17.8095 111.483 17.3934 111.483 16.727H110.483ZM110.483 2.45621V16.727H111.483V2.45621H110.483ZM110.305 2.37372C110.377 2.37372 110.43 2.39899 110.459 2.42358C110.473 2.43551 110.479 2.44544 110.481 2.45032C110.483 2.45446 110.483 2.4558 110.483 2.45621H111.483C111.483 1.78984 110.882 1.37372 110.305 1.37372V2.37372ZM93.6949 2.37372H110.305V1.37372H93.6949V2.37372ZM93.5169 2.45621C93.5169 2.4558 93.5168 2.45446 93.5188 2.45032C93.5212 2.44544 93.5275 2.43551 93.5414 2.42358C93.57 2.39899 93.6227 2.37372 93.6949 2.37372V1.37372C93.1183 1.37372 92.5169 1.78984 92.5169 2.45621H93.5169ZM93.5169 16.727V2.45621H92.5169V16.727H93.5169ZM93.6949 16.8095C93.6227 16.8095 93.57 16.7842 93.5414 16.7597C93.5275 16.7477 93.5212 16.7378 93.5188 16.7329C93.5168 16.7288 93.5169 16.7274 93.5169 16.727H92.5169C92.5169 17.3934 93.1183 17.8095 93.6949 17.8095V16.8095ZM99.1446 16.8095H93.6949V17.8095H99.1446V16.8095ZM101.846 18.9716L99.4704 16.9303L98.8188 17.6888L101.195 19.7301L101.846 18.9716ZM102.154 18.9716C102.076 19.0381 101.924 19.0381 101.846 18.9716L101.195 19.7301C101.647 20.1186 102.353 20.1186 102.805 19.7301L102.154 18.9716ZM104.53 16.9303L102.154 18.9716L102.805 19.7301L105.181 17.6888L104.53 16.9303ZM110.305 16.8095H104.855V17.8095H110.305V16.8095Z" fill="#555555" mask="url(#path-4-outside-1_431_1901)"/>
<path d="M99.2961 9.8516V10.1524C99.2961 10.5936 99.2407 10.9906 99.1299 11.3436C99.019 11.6939 98.8615 11.992 98.6575 12.238C98.4534 12.484 98.2103 12.6725 97.9281 12.8035C97.6459 12.9345 97.3323 13 96.9871 13C96.647 13 96.3346 12.9345 96.0499 12.8035C95.7677 12.6725 95.5233 12.484 95.3168 12.238C95.1102 11.992 94.9502 11.6939 94.8368 11.3436C94.7234 10.9906 94.6667 10.5936 94.6667 10.1524V9.8516C94.6667 9.40775 94.7234 9.0107 94.8368 8.66043C94.9502 8.31016 95.1089 8.01203 95.313 7.76604C95.517 7.51738 95.7602 7.32754 96.0423 7.19652C96.327 7.06551 96.6394 7 96.9796 7C97.3247 7 97.6384 7.06551 97.9205 7.19652C98.2027 7.32754 98.4458 7.51738 98.6499 7.76604C98.8565 8.01203 99.0152 8.31016 99.1261 8.66043C99.2395 9.0107 99.2961 9.40775 99.2961 9.8516ZM98.2456 10.1524V9.84358C98.2456 9.5254 98.2178 9.24599 98.1624 9.00535C98.107 8.76203 98.0251 8.55749 97.9168 8.39171C97.8084 8.22594 97.6749 8.1016 97.5162 8.01872C97.3575 7.93316 97.1786 7.89037 96.9796 7.89037C96.778 7.89037 96.5991 7.93316 96.4429 8.01872C96.2892 8.1016 96.1582 8.22594 96.0499 8.39171C95.9416 8.55749 95.8584 8.76203 95.8005 9.00535C95.745 9.24599 95.7173 9.5254 95.7173 9.84358V10.1524C95.7173 10.4679 95.745 10.7473 95.8005 10.9906C95.8584 11.234 95.9416 11.4398 96.0499 11.6083C96.1608 11.7741 96.2943 11.8997 96.4505 11.9853C96.6067 12.0709 96.7856 12.1136 96.9871 12.1136C97.1887 12.1136 97.3675 12.0709 97.5237 11.9853C97.6799 11.8997 97.811 11.7741 97.9168 11.6083C98.0251 11.4398 98.107 11.234 98.1624 10.9906C98.2178 10.7473 98.2456 10.4679 98.2456 10.1524Z" fill="#555555"/>
<path d="M103.238 7.08021H104.277V10.9586C104.277 11.4051 104.186 11.7807 104.005 12.0856C103.823 12.3877 103.577 12.6163 103.264 12.7714C102.952 12.9238 102.597 13 102.198 13C101.795 13 101.436 12.9238 101.121 12.7714C100.807 12.6163 100.56 12.3877 100.381 12.0856C100.202 11.7807 100.112 11.4051 100.112 10.9586V7.08021H101.152V10.9586C101.152 11.2313 101.195 11.4545 101.28 11.6283C101.366 11.7995 101.487 11.9265 101.643 12.0094C101.799 12.0922 101.984 12.1337 102.198 12.1337C102.415 12.1337 102.6 12.0922 102.754 12.0094C102.91 11.9265 103.03 11.7995 103.113 11.6283C103.196 11.4545 103.238 11.2313 103.238 10.9586V7.08021Z" fill="#555555"/>
<path d="M107.625 7.08021V12.9198H106.59V7.08021H107.625ZM109.333 7.08021V7.95053H104.901V7.08021H109.333Z" fill="#555555"/>
<path d="M13.1111 22H18.6667V24.2222H13.1111V22ZM13.1111 29.7778H18.6667V32H13.1111V29.7778ZM19.7778 17H4.22222C3 17 2 18 2 19.2222V34.7778C2 36 3 37 4.22222 37H19.7778C21 37 22 36 22 34.7778V19.2222C22 18 21 17 19.7778 17ZM19.7778 34.7778H4.22222V19.2222H19.7778V34.7778ZM10.8889 20.3333H5.33333V25.8889H10.8889V20.3333ZM9.77778 24.7778H6.44444V21.4444H9.77778V24.7778ZM10.8889 28.1111H5.33333V33.6667H10.8889V28.1111ZM9.77778 32.5556H6.44444V29.2222H9.77778V32.5556Z" fill="#555555"/>
</svg>
