<svg width="25" height="24" viewBox="0 0 25 24" fill="none" xmlns="http://www.w3.org/2000/svg">
<path d="M8.69981 8.21046C8.4334 8.48988 8.4334 8.94124 8.69981 9.22065L11.3503 12.0005L8.69981 14.7803C8.4334 15.0597 8.4334 15.511 8.69981 15.7904C8.96622 16.0699 9.39658 16.0699 9.663 15.7904L12.7985 12.502C13.0649 12.2225 13.0649 11.7712 12.7985 11.4918L9.66983 8.21046C9.40342 7.93105 8.96622 7.93105 8.69981 8.21046Z" fill="black"/>
<path d="M13.2015 8.21046C12.9351 8.48988 12.9351 8.94124 13.2015 9.22065L15.852 12.0005L13.2015 14.7803C12.9351 15.0597 12.9351 15.511 13.2015 15.7904C13.4679 16.0699 13.8983 16.0699 14.1647 15.7904L17.3002 12.502C17.5666 12.2225 17.5666 11.7712 17.3002 11.4918L14.1647 8.2033C13.9051 7.93105 13.4679 7.93105 13.2015 8.21046Z" fill="black"/>
</svg>
