<svg width="25" height="24" viewBox="0 0 25 24" fill="none" xmlns="http://www.w3.org/2000/svg">
<path d="M17.2704 15.7895C17.5664 15.5101 17.5664 15.0588 17.2704 14.7794L14.333 11.9995L17.278 9.21975C17.574 8.94033 17.574 8.48897 17.278 8.20956C16.982 7.93015 16.5038 7.93015 16.2078 8.20956L12.7239 11.498C12.4279 11.7775 12.4279 12.2288 12.7239 12.5082L16.2078 15.7967C16.4962 16.0689 16.9744 16.0689 17.2704 15.7895Z" fill="#333333"/>
<path d="M12.2685 15.7895C12.5645 15.5101 12.5645 15.0588 12.2685 14.7794L9.33112 11.9995L12.2761 9.21975C12.5721 8.94033 12.5721 8.48897 12.2761 8.20956C11.9801 7.93015 11.5019 7.93015 11.2059 8.20956L7.72201 11.498C7.426 11.7775 7.426 12.2288 7.72201 12.5082L11.2059 15.7967C11.4943 16.0689 11.9725 16.0689 12.2685 15.7895Z" fill="#333333"/>
</svg>
