<svg width="18" height="21" viewBox="0 0 18 21" fill="none" xmlns="http://www.w3.org/2000/svg">
<path d="M12.305 9.76542V3.57375C12.305 3.11542 11.9793 2.74042 11.5812 2.74042H5.79059C5.39249 2.74042 5.06677 3.11542 5.06677 3.57375V9.76542C5.06677 10.0571 5.19706 10.3321 5.42144 10.4821L8.44701 12.5738L7.73043 14.5238L6.12355 14.6821C5.79059 14.7154 5.66031 15.1738 5.9064 15.4154L7.12966 16.6321L6.76051 18.4488C6.68813 18.8071 7.02833 19.0904 7.30338 18.8988L8.68587 17.9321L10.0684 18.8904C10.3434 19.0821 10.6836 18.7988 10.6112 18.4404L10.2421 16.6238L11.4653 15.4071C11.7042 15.1654 11.5812 14.7071 11.2554 14.6738L9.64856 14.5154L8.93197 12.5654L11.9575 10.4738C12.1747 10.3321 12.305 10.0654 12.305 9.76542ZM9.40969 11.2654L8.68587 11.7654L7.96205 11.2654V3.57375H9.40969V11.2654Z" fill="#8041F7"/>
</svg>
