<svg width="20" height="20" viewBox="0 0 20 20" fill="none" xmlns="http://www.w3.org/2000/svg">
<path d="M16.9062 6.95276L15.0541 5.1006C14.8416 4.88816 14.4831 5.03421 14.4831 5.33295V6.52125H5.18915C4.82403 6.52125 4.52529 6.81998 4.52529 7.18511C4.52529 7.55023 4.82403 7.84896 5.18915 7.84896H14.4831V9.03727C14.4831 9.336 14.8416 9.48205 15.0474 9.26962L16.8996 7.41746C17.0323 7.29132 17.0323 7.07889 16.9062 6.95276Z" fill="#8041F7"/>
<path d="M15.8109 11.8321H6.51686V10.6438C6.51686 10.3451 6.15838 10.199 5.95258 10.4114L4.10042 12.2636C3.96765 12.3897 3.96765 12.6022 4.09379 12.7283L5.94594 14.5805C6.15838 14.7929 6.51686 14.6469 6.51686 14.3481V13.1598H15.8109C16.176 13.1598 16.4747 12.8611 16.4747 12.496C16.4747 12.1308 16.176 11.8321 15.8109 11.8321Z" fill="#8041F7"/>
</svg>
