<svg width="24" height="25" viewBox="0 0 24 25" fill="none" xmlns="http://www.w3.org/2000/svg">
<path d="M22.7306 7.59288L19.7088 4.57111C19.3623 4.22452 18.7774 4.4628 18.7774 4.95018V6.88888H3.61439C3.01871 6.88888 2.53132 7.37626 2.53132 7.97195C2.53132 8.56764 3.01871 9.05502 3.61439 9.05502H18.7774V10.9937C18.7774 11.4811 19.3623 11.7194 19.698 11.3728L22.7198 8.35103C22.9364 8.14524 22.9364 7.79866 22.7306 7.59288Z" fill="white"/>
<path d="M20.9435 15.5535H5.78054V13.6148C5.78054 13.1274 5.19568 12.8891 4.85993 13.2357L1.83816 16.2574C1.62154 16.4632 1.62154 16.8098 1.82733 17.0156L4.8491 20.0374C5.19568 20.384 5.78054 20.1457 5.78054 19.6583V17.7196H20.9435C21.5392 17.7196 22.0266 17.2322 22.0266 16.6365C22.0266 16.0408 21.5392 15.5535 20.9435 15.5535Z" fill="white"/>
</svg>
