<svg width="44" height="43" viewBox="0 0 44 43" fill="none" xmlns="http://www.w3.org/2000/svg">
<path d="M41.3958 12.7081L35.9818 7.29405C35.3608 6.67309 34.3129 7.1 34.3129 7.97323V11.4467H7.1459C6.07862 11.4467 5.20539 12.32 5.20539 13.3872C5.20539 14.4545 6.07862 15.3277 7.1459 15.3277H34.3129V18.8012C34.3129 19.6745 35.3608 20.1014 35.9624 19.4804L41.3764 14.0664C41.7645 13.6977 41.7645 13.0768 41.3958 12.7081Z" fill="white"/>
<path d="M38.194 26.9708H11.0269V23.4973C11.0269 22.624 9.97903 22.1971 9.37747 22.8181L3.96347 28.2321C3.57537 28.6008 3.57537 29.2217 3.94406 29.5904L9.35807 35.0044C9.97903 35.6254 11.0269 35.1985 11.0269 34.3253V30.8518H38.194C39.2612 30.8518 40.1345 29.9785 40.1345 28.9113C40.1345 27.844 39.2612 26.9708 38.194 26.9708Z" fill="white"/>
</svg>
