<svg width="12" height="12" viewBox="0 0 12 12" fill="none" xmlns="http://www.w3.org/2000/svg">
<path d="M6.16255 2.50299V3.54623C6.16255 3.8085 6.47728 3.93672 6.65795 3.75022L8.28402 2.12415C8.40058 2.00759 8.40058 1.82692 8.28402 1.71035L6.65795 0.0842864C6.47728 -0.0963876 6.16255 0.0318327 6.16255 0.294101V1.33735C3.58649 1.33735 1.5 3.42384 1.5 5.9999C1.5 6.60603 1.61656 7.18885 1.83221 7.71922C1.98957 8.10971 2.49079 8.21462 2.78803 7.91738C2.94539 7.76002 3.0095 7.52106 2.92208 7.31125C2.75306 6.9091 2.66564 6.46033 2.66564 5.9999C2.66564 4.07077 4.23342 2.50299 6.16255 2.50299ZM9.53708 4.08243C9.37972 4.23979 9.31561 4.48457 9.40303 4.68856C9.56622 5.09653 9.65947 5.53948 9.65947 5.9999C9.65947 7.92903 8.09169 9.49682 6.16255 9.49682V8.45357C6.16255 8.1913 5.84783 8.06308 5.66716 8.24959L4.04109 9.87565C3.92453 9.99222 3.92453 10.1729 4.04109 10.2895L5.66716 11.9155C5.84783 12.0962 6.16255 11.968 6.16255 11.7115V10.6625C8.73862 10.6625 10.8251 8.57596 10.8251 5.9999C10.8251 5.39377 10.7085 4.81095 10.4929 4.28059C10.3355 3.8901 9.83432 3.78519 9.53708 4.08243Z" fill="#333333"/>
</svg>
