<svg width="20" height="20" viewBox="0 0 20 20" fill="none" xmlns="http://www.w3.org/2000/svg">
<path d="M13.459 11.9644H12.6719L13.3892 12.6918C14.5849 11.2968 15.2027 9.39376 14.8639 7.37111C14.3956 4.60118 12.084 2.38921 9.29413 2.05044C5.07944 1.53232 1.53232 5.07944 2.05044 9.29413C2.38921 12.084 4.60118 14.3956 7.37111 14.8639C9.39377 15.2027 11.2969 14.5849 12.6918 13.3892L11.9644 12.6719V13.459L16.209 17.6936C16.6175 18.1021 17.2751 18.1021 17.6836 17.6936L17.6936 17.6836C18.1021 17.2751 18.1021 16.6175 17.6936 16.209L13.459 11.9644ZM8.4771 12.9608C5.99611 12.9608 3.99338 10.9581 3.99338 8.47709C3.99338 5.99611 5.99611 3.99338 8.4771 3.99338C10.9581 3.99338 12.9608 5.99611 12.9608 8.47709C12.9608 10.9581 10.9581 12.9608 8.4771 12.9608Z" fill="white"/>
</svg>
