<svg width="12" height="12" viewBox="0 0 12 12" fill="none" xmlns="http://www.w3.org/2000/svg">
<path d="M9.47368 6.31579C9.12632 6.31579 8.8421 6.6 8.8421 6.94737V10.2442C8.8421 10.5916 8.55789 10.8758 8.21053 10.8758H1.89474C1.54737 10.8758 1.26316 10.5916 1.26316 10.2442V3.78947C1.26316 3.44211 1.54737 3.15789 1.89474 3.15789H5.05263C5.4 3.15789 5.68421 2.87368 5.68421 2.52632C5.68421 2.17895 5.4 1.89474 5.05263 1.89474H1.26316C0.568421 1.89474 0 2.46316 0 3.15789V10.7368C0 11.4316 0.568421 12 1.26316 12H8.8421C9.53684 12 10.1053 11.4316 10.1053 10.7368V6.94737C10.1053 6.6 9.82105 6.31579 9.47368 6.31579Z" fill="#AAAAAA"/>
<path d="M11.3811 1.89474H10.1053V0.618947C10.1053 0.277895 9.82737 0 9.48632 0H9.46737C9.12 0 8.8421 0.277895 8.8421 0.618947V1.89474H7.57263C7.23158 1.89474 6.95368 2.17263 6.94737 2.51368C6.94737 2.52 6.94737 2.52632 6.94737 2.53263C6.94737 2.88 7.22526 3.15789 7.57263 3.15789H8.8421V4.42737C8.8421 4.76842 9.12 5.05263 9.46737 5.04632C9.47368 5.04632 9.48 5.04632 9.48632 5.04632C9.82737 5.04632 10.1053 4.76842 10.1053 4.42737V3.15789H11.3811C11.7221 3.15789 12 2.88 12 2.53895V2.51368C12 2.17263 11.7221 1.89474 11.3811 1.89474Z" fill="#AAAAAA"/>
<path d="M6.94737 4.42105H3.15789C2.81053 4.42105 2.52632 4.70526 2.52632 5.05263C2.52632 5.4 2.81053 5.68421 3.15789 5.68421H6.94737C7.29474 5.68421 7.57895 5.4 7.57895 5.05263C7.57895 4.70526 7.29474 4.42105 6.94737 4.42105Z" fill="#AAAAAA"/>
<path d="M6.94737 6.31579H3.15789C2.81053 6.31579 2.52632 6.6 2.52632 6.94737C2.52632 7.29474 2.81053 7.57895 3.15789 7.57895H6.94737C7.29474 7.57895 7.57895 7.29474 7.57895 6.94737C7.57895 6.6 7.29474 6.31579 6.94737 6.31579Z" fill="#AAAAAA"/>
<path d="M6.94737 8.21053H3.15789C2.81053 8.21053 2.52632 8.49474 2.52632 8.8421C2.52632 9.18947 2.81053 9.47368 3.15789 9.47368H6.94737C7.29474 9.47368 7.57895 9.18947 7.57895 8.8421C7.57895 8.49474 7.29474 8.21053 6.94737 8.21053Z" fill="#AAAAAA"/>
</svg>
