<svg width="24" height="24" viewBox="0 0 24 24" fill="none" xmlns="http://www.w3.org/2000/svg">
<path d="M20 12C20 16.4183 16.4183 20 12 20C7.58172 20 4 16.4183 4 12C4 7.58172 7.58172 4 12 4C16.4183 4 20 7.58172 20 12ZM7.6445 12C7.6445 14.4055 9.59452 16.3555 12 16.3555C14.4055 16.3555 16.3555 14.4055 16.3555 12C16.3555 9.59452 14.4055 7.6445 12 7.6445C9.59452 7.6445 7.6445 9.59452 7.6445 12Z" fill="#C4C4C4"/>
<path d="M19.8828 10.6355C19.6584 9.33922 19.1178 8.11823 18.3088 7.08074C17.4998 6.04326 16.4475 5.22129 15.2449 4.68766C14.0424 4.15402 12.7269 3.92519 11.4148 4.02143C10.1027 4.11768 8.83459 4.53602 7.7228 5.23941C6.61102 5.9428 5.68986 6.90952 5.04093 8.05395C4.392 9.19838 4.03532 10.4852 4.00249 11.8004C3.96966 13.1156 4.2617 14.4186 4.85273 15.5939C5.44375 16.7693 6.31553 17.7808 7.39084 18.5388L9.4906 15.56C8.90516 15.1473 8.43053 14.5966 8.10876 13.9567C7.78698 13.3168 7.62798 12.6074 7.64586 11.8913C7.66373 11.1753 7.85792 10.4747 8.21122 9.85162C8.56452 9.22855 9.06604 8.70223 9.67133 8.31928C10.2766 7.93633 10.967 7.70857 11.6814 7.65617C12.3957 7.60377 13.112 7.72836 13.7667 8.01889C14.4214 8.30942 14.9943 8.75693 15.4347 9.32177C15.8752 9.88662 16.1695 10.5514 16.2917 11.2571L19.8828 10.6355Z" fill="black"/>
</svg>
