<svg width="20" height="20" viewBox="0 0 20 20" fill="none" xmlns="http://www.w3.org/2000/svg">
<path d="M14.1668 8.91514V2.72347C14.1668 2.26514 13.7918 1.89014 13.3335 1.89014H6.66683C6.2085 1.89014 5.8335 2.26514 5.8335 2.72347V8.91514C5.8335 9.2068 5.9835 9.4818 6.24183 9.6318L9.72516 11.7235L8.90016 13.6735L7.05016 13.8318C6.66683 13.8651 6.51683 14.3235 6.80016 14.5651L8.2085 15.7818L7.7835 17.5985C7.70016 17.9568 8.09183 18.2401 8.4085 18.0485L10.0002 17.0818L11.5918 18.0401C11.9085 18.2318 12.3002 17.9485 12.2168 17.5901L11.7918 15.7735L13.2002 14.5568C13.4752 14.3151 13.3335 13.8568 12.9585 13.8235L11.1085 13.6651L10.2835 11.7151L13.7668 9.62347C14.0168 9.4818 14.1668 9.21514 14.1668 8.91514ZM10.8335 10.4151L10.0002 10.9151L9.16683 10.4151V2.72347H10.8335V10.4151Z" fill="#333333"/>
</svg>
