<svg width="20" height="20" viewBox="0 0 20 20" fill="none" xmlns="http://www.w3.org/2000/svg">
<path opacity="0.3" d="M10 3.33337C6.31671 3.33337 3.33337 6.31671 3.33337 10C3.33337 13.6834 6.31671 16.6667 10 16.6667C13.6834 16.6667 16.6667 13.6834 16.6667 10C16.6667 6.31671 13.6834 3.33337 10 3.33337ZM10.8334 14.1667H9.16671V12.5H10.8334V14.1667ZM10.8334 10.8334H9.16671V5.83337H10.8334V10.8334Z" fill="#ECE1FE"/>
<path d="M9.99163 1.66663C5.39163 1.66663 1.66663 5.39996 1.66663 9.99996C1.66663 14.6 5.39163 18.3333 9.99163 18.3333C14.6 18.3333 18.3333 14.6 18.3333 9.99996C18.3333 5.39996 14.6 1.66663 9.99163 1.66663ZM9.99996 16.6666C6.31663 16.6666 3.33329 13.6833 3.33329 9.99996C3.33329 6.31663 6.31663 3.33329 9.99996 3.33329C13.6833 3.33329 16.6666 6.31663 16.6666 9.99996C16.6666 13.6833 13.6833 16.6666 9.99996 16.6666ZM9.16663 12.5H10.8333V14.1666H9.16663V12.5ZM9.16663 5.83329H10.8333V10.8333H9.16663V5.83329Z" fill="#21ABA5"/>
</svg>
