<svg width="24" height="25" viewBox="0 0 24 25" fill="none" xmlns="http://www.w3.org/2000/svg">
<path d="M12.2785 6.40101C9.08695 6.40101 6.43648 8.73049 5.94123 11.7845C5.84952 12.3256 6.29891 12.8208 6.85835 12.8208C7.30774 12.8208 7.68376 12.4907 7.75713 12.0413C8.13314 9.87689 10.0132 8.23525 12.2785 8.23525C14.5438 8.23525 16.4239 9.87689 16.7999 12.0413C16.8733 12.4907 17.2493 12.8208 17.6987 12.8208C18.2581 12.8208 18.6983 12.3256 18.6066 11.7845C18.1205 8.73049 15.4701 6.40101 12.2785 6.40101ZM13.1956 14.921C14.1769 14.4808 14.8098 13.3986 14.4888 12.1789C14.287 11.436 13.6909 10.8307 12.948 10.6198C11.3981 10.1795 9.98572 11.3351 9.98572 12.8208C9.98572 13.7563 10.5543 14.5634 11.3614 14.921V17.9475L8.87601 20.4237C8.51833 20.7814 8.51833 21.3592 8.87601 21.7169C9.23368 22.0745 9.81147 22.0745 10.1691 21.7169L12.2785 19.6075L14.3879 21.7169C14.7456 22.0745 15.3233 22.0745 15.681 21.7169C16.0387 21.3592 16.0387 20.7814 15.681 20.4237L13.1956 17.9475V14.921ZM12.2785 2.73254C7.05095 2.73254 2.74967 6.71283 2.23608 11.812C2.19022 12.3531 2.6121 12.8208 3.1532 12.8208C3.62093 12.8208 4.01529 12.4723 4.06114 12.0138C4.46467 7.83172 7.99558 4.56678 12.2785 4.56678C16.5615 4.56678 20.0923 7.83172 20.4959 12.0138C20.5417 12.4723 20.9361 12.8208 21.4038 12.8208C21.9449 12.8208 22.376 12.3531 22.3209 11.812C21.8074 6.71283 17.5061 2.73254 12.2785 2.73254Z" fill="white"/>
</svg>
