<svg width="44" height="43" viewBox="0 0 44 43" fill="none" xmlns="http://www.w3.org/2000/svg">
<path d="M22.7937 10.5727C17.0755 10.5727 12.3267 14.7463 11.4394 20.2181C11.2751 21.1875 12.0803 22.0749 13.0826 22.0749C13.8878 22.0749 14.5615 21.4833 14.6929 20.6782C15.3666 16.8003 18.7351 13.859 22.7937 13.859C26.8524 13.859 30.2209 16.8003 30.8946 20.6782C31.026 21.4833 31.6997 22.0749 32.5049 22.0749C33.5072 22.0749 34.2959 21.1875 34.1316 20.2181C33.2607 14.7463 28.512 10.5727 22.7937 10.5727ZM24.4369 25.8377C26.1951 25.049 27.3289 23.11 26.7538 20.9246C26.3923 19.5937 25.3242 18.5092 23.9932 18.1312C21.2163 17.3425 18.6858 19.4129 18.6858 22.0749C18.6858 23.7509 19.7046 25.1969 21.1506 25.8377V31.2602L16.6976 35.6967C16.0567 36.3376 16.0567 37.3728 16.6976 38.0136C17.3384 38.6544 18.3736 38.6544 19.0144 38.0136L22.7937 34.2343L26.573 38.0136C27.2139 38.6544 28.2491 38.6544 28.8899 38.0136C29.5307 37.3728 29.5307 36.3376 28.8899 35.6967L24.4369 31.2602V25.8377ZM22.7937 4C13.4277 4 5.72121 11.1314 4.80104 20.2674C4.71888 21.2368 5.47474 22.0749 6.44421 22.0749C7.28222 22.0749 7.98879 21.4504 8.07094 20.6289C8.79394 13.136 15.1201 7.28634 22.7937 7.28634C30.4673 7.28634 36.7935 13.136 37.5165 20.6289C37.5987 21.4504 38.3052 22.0749 39.1433 22.0749C40.1127 22.0749 40.885 21.2368 40.7864 20.2674C39.8663 11.1314 32.1598 4 22.7937 4Z" fill="white"/>
</svg>
