<svg width="20" height="20" viewBox="0 0 20 20" fill="none" xmlns="http://www.w3.org/2000/svg">
<path d="M10.4996 6.37347C8.43466 6.37347 6.71983 7.88062 6.39941 9.85653C6.34007 10.2066 6.63082 10.527 6.99278 10.527C7.28352 10.527 7.5268 10.3134 7.57427 10.0227C7.81755 8.62232 9.03396 7.5602 10.4996 7.5602C11.9652 7.5602 13.1816 8.62232 13.4249 10.0227C13.4723 10.3134 13.7156 10.527 14.0064 10.527C14.3683 10.527 14.6531 10.2066 14.5938 9.85653C14.2793 7.88062 12.5645 6.37347 10.4996 6.37347ZM11.0929 11.8858C11.7278 11.601 12.1373 10.9009 11.9296 10.1117C11.799 9.63105 11.4134 9.23943 10.9327 9.10295C9.92994 8.81814 9.01615 9.56578 9.01615 10.527C9.01615 11.1323 9.38404 11.6544 9.9062 11.8858V13.8439L8.29818 15.446C8.06677 15.6775 8.06677 16.0513 8.29818 16.2827C8.52959 16.5141 8.90341 16.5141 9.13483 16.2827L10.4996 14.9179L11.8643 16.2827C12.0957 16.5141 12.4695 16.5141 12.701 16.2827C12.9324 16.0513 12.9324 15.6775 12.701 15.446L11.0929 13.8439V11.8858ZM10.4996 4C7.11738 4 4.33449 6.57521 4.00221 9.87433C3.97254 10.2244 4.24549 10.527 4.59558 10.527C4.89819 10.527 5.15334 10.3016 5.18301 10.0049C5.44409 7.29912 7.72855 5.18673 10.4996 5.18673C13.2706 5.18673 15.555 7.29912 15.8161 10.0049C15.8458 10.3016 16.1009 10.527 16.4036 10.527C16.7537 10.527 17.0325 10.2244 16.9969 9.87433C16.6646 6.57521 13.8818 4 10.4996 4Z" fill="#8041F7"/>
</svg>
