<svg width="20" height="20" viewBox="0 0 20 20" fill="none" xmlns="http://www.w3.org/2000/svg">
<path fill-rule="evenodd" clip-rule="evenodd" d="M13.8917 10.9416C15.0334 11.7166 15.8334 12.7666 15.8334 14.1666V16.6666H18.3334C18.7917 16.6666 19.1667 16.2916 19.1667 15.8333V14.1666C19.1667 12.35 16.1917 11.275 13.8917 10.9416Z" fill="#333333"/>
<path d="M7.50004 9.99998C9.34099 9.99998 10.8334 8.5076 10.8334 6.66665C10.8334 4.8257 9.34099 3.33331 7.50004 3.33331C5.65909 3.33331 4.16671 4.8257 4.16671 6.66665C4.16671 8.5076 5.65909 9.99998 7.50004 9.99998Z" fill="#333333"/>
<path fill-rule="evenodd" clip-rule="evenodd" d="M12.5 9.99998C14.3417 9.99998 15.8334 8.50831 15.8334 6.66665C15.8334 4.82498 14.3417 3.33331 12.5 3.33331C12.1084 3.33331 11.7417 3.41665 11.3917 3.53331C12.0834 4.39165 12.5 5.48331 12.5 6.66665C12.5 7.84998 12.0834 8.94165 11.3917 9.79998C11.7417 9.91665 12.1084 9.99998 12.5 9.99998Z" fill="#333333"/>
<path fill-rule="evenodd" clip-rule="evenodd" d="M7.50004 10.8333C5.27504 10.8333 0.833374 11.95 0.833374 14.1666V15.8333C0.833374 16.2916 1.20837 16.6666 1.66671 16.6666H13.3334C13.7917 16.6666 14.1667 16.2916 14.1667 15.8333V14.1666C14.1667 11.95 9.72504 10.8333 7.50004 10.8333Z" fill="#333333"/>
</svg>
