<svg width="74" height="74" viewBox="0 0 74 74" fill="none" xmlns="http://www.w3.org/2000/svg">
<path d="M37.0002 16.9392L60.2177 57.0534H13.7827L37.0002 16.9392ZM8.44854 53.9701C6.07438 58.0709 9.03438 63.2201 13.7827 63.2201H60.2177C64.966 63.2201 67.926 58.0709 65.5519 53.9701L42.3344 13.8559C39.9602 9.75507 34.0402 9.75507 31.666 13.8559L8.44854 53.9701ZM33.9169 32.3867V38.5534C33.9169 40.2492 35.3044 41.6367 37.0002 41.6367C38.696 41.6367 40.0835 40.2492 40.0835 38.5534V32.3867C40.0835 30.6909 38.696 29.3034 37.0002 29.3034C35.3044 29.3034 33.9169 30.6909 33.9169 32.3867ZM33.9169 47.8034H40.0835V53.9701H33.9169V47.8034Z" fill="white"/>
</svg>
