<svg width="38" height="38" viewBox="0 0 38 38" fill="none" xmlns="http://www.w3.org/2000/svg">
<path d="M19 8.69786L30.9225 29.297H7.07753L19 8.69786ZM4.33836 27.7137C3.1192 29.8195 4.6392 32.4637 7.07753 32.4637H30.9225C33.3609 32.4637 34.8809 29.8195 33.6617 27.7137L21.7392 7.11453C20.52 5.0087 17.48 5.0087 16.2609 7.11453L4.33836 27.7137ZM17.4167 16.6304V19.797C17.4167 20.6679 18.1292 21.3804 19 21.3804C19.8709 21.3804 20.5834 20.6679 20.5834 19.797V16.6304C20.5834 15.7595 19.8709 15.047 19 15.047C18.1292 15.047 17.4167 15.7595 17.4167 16.6304ZM17.4167 24.547H20.5834V27.7137H17.4167V24.547Z" fill="#21ABA5"/>
</svg>
